<svg width="15" height="12" viewBox="0 0 15 12" fill="none" xmlns="http://www.w3.org/2000/svg">
<path d="M7.50017 8.00002C7.35414 8.00024 7.21262 7.95956 7.10017 7.88502L3.35017 5.38502C3.22254 5.30015 3.14227 5.17819 3.12703 5.04598C3.1118 4.91376 3.16284 4.78212 3.26892 4.68002C3.37501 4.57791 3.52745 4.5137 3.69272 4.50151C3.85799 4.48932 4.02254 4.53015 4.15017 4.61502L7.50017 6.85502L10.8502 4.69502C10.9141 4.65348 10.9877 4.62247 11.0666 4.60375C11.1456 4.58504 11.2284 4.57899 11.3103 4.58596C11.3922 4.59293 11.4715 4.61278 11.5438 4.64436C11.6161 4.67595 11.6798 4.71865 11.7314 4.77002C11.7887 4.82143 11.832 4.88174 11.8588 4.94718C11.8855 5.01261 11.8951 5.08176 11.8868 5.1503C11.8786 5.21883 11.8528 5.28526 11.811 5.34544C11.7692 5.40562 11.7123 5.45824 11.6439 5.50002L7.89392 7.91502C7.77824 7.97777 7.63961 8.0077 7.50017 8.00002Z" fill="#231F20"/>
</svg>
