<svg width="26" height="25" viewBox="0 0 26 25" fill="none" xmlns="http://www.w3.org/2000/svg">
<g id="instagram">
<path id="Vector" d="M13.1282 6.88477C10.0227 6.88477 7.51782 9.38965 7.51782 12.4951C7.51782 15.6006 10.0227 18.1055 13.1282 18.1055C16.2336 18.1055 18.7385 15.6006 18.7385 12.4951C18.7385 9.38965 16.2336 6.88477 13.1282 6.88477ZM13.1282 16.1426C11.1213 16.1426 9.48071 14.5068 9.48071 12.4951C9.48071 10.4834 11.1165 8.84766 13.1282 8.84766C15.1399 8.84766 16.7756 10.4834 16.7756 12.4951C16.7756 14.5068 15.135 16.1426 13.1282 16.1426ZM20.2766 6.65527C20.2766 7.38281 19.6907 7.96387 18.968 7.96387C18.2405 7.96387 17.6594 7.37793 17.6594 6.65527C17.6594 5.93262 18.2454 5.34668 18.968 5.34668C19.6907 5.34668 20.2766 5.93262 20.2766 6.65527ZM23.9924 7.9834C23.9094 6.23047 23.509 4.67773 22.2249 3.39844C20.9456 2.11914 19.3928 1.71875 17.6399 1.63086C15.8333 1.52832 10.4182 1.52832 8.61157 1.63086C6.86353 1.71387 5.31079 2.11426 4.02661 3.39355C2.74243 4.67285 2.34692 6.22559 2.25903 7.97852C2.15649 9.78516 2.15649 15.2002 2.25903 17.0068C2.34204 18.7598 2.74243 20.3125 4.02661 21.5918C5.31079 22.8711 6.85864 23.2715 8.61157 23.3594C10.4182 23.4619 15.8333 23.4619 17.6399 23.3594C19.3928 23.2764 20.9456 22.876 22.2249 21.5918C23.5042 20.3125 23.9045 18.7598 23.9924 17.0068C24.095 15.2002 24.095 9.79004 23.9924 7.9834ZM21.6584 18.9453C21.2776 19.9023 20.5403 20.6396 19.5784 21.0254C18.1379 21.5967 14.72 21.4648 13.1282 21.4648C11.5364 21.4648 8.11353 21.5918 6.67798 21.0254C5.72095 20.6445 4.98364 19.9072 4.5979 18.9453C4.02661 17.5049 4.15845 14.0869 4.15845 12.4951C4.15845 10.9033 4.03149 7.48047 4.5979 6.04492C4.97876 5.08789 5.71606 4.35059 6.67798 3.96484C8.11841 3.39355 11.5364 3.52539 13.1282 3.52539C14.72 3.52539 18.1428 3.39844 19.5784 3.96484C20.5354 4.3457 21.2727 5.08301 21.6584 6.04492C22.2297 7.48535 22.0979 10.9033 22.0979 12.4951C22.0979 14.0869 22.2297 17.5098 21.6584 18.9453Z" fill="black"/>
</g>
</svg>
