<svg width="20" height="13" viewBox="0 0 20 13" fill="none" xmlns="http://www.w3.org/2000/svg">
<path d="M3.64 6.088C4.088 6.088 4.48267 6.03467 4.824 5.928C5.17067 5.816 5.45867 5.66133 5.688 5.464C5.92267 5.26133 6.09867 5.02133 6.216 4.744C6.33333 4.46667 6.392 4.16 6.392 3.824C6.392 3.14133 6.168 2.62667 5.72 2.28C5.272 1.93333 4.6 1.76 3.704 1.76H2.008V6.088H3.64ZM8.936 12H7.56C7.27733 12 7.06933 11.8907 6.936 11.672L3.96 7.576C3.86933 7.448 3.77067 7.35733 3.664 7.304C3.56267 7.24533 3.40267 7.216 3.184 7.216H2.008V12H0.464V0.535999H3.704C4.42933 0.535999 5.056 0.610666 5.584 0.759999C6.112 0.904 6.54667 1.11467 6.888 1.392C7.23467 1.66933 7.49067 2.00533 7.656 2.4C7.82133 2.78933 7.904 3.22667 7.904 3.712C7.904 4.11733 7.84 4.496 7.712 4.848C7.584 5.2 7.39733 5.51733 7.152 5.8C6.912 6.07733 6.616 6.31467 6.264 6.512C5.91733 6.70933 5.52267 6.85867 5.08 6.96C5.27733 7.072 5.448 7.23467 5.592 7.448L8.936 12ZM14.8568 10.768C15.3314 10.768 15.7554 10.688 16.1288 10.528C16.5021 10.368 16.8168 10.144 17.0728 9.856C17.3341 9.568 17.5314 9.224 17.6648 8.824C17.8034 8.424 17.8728 7.984 17.8728 7.504V0.535999H19.4168V7.504C19.4168 8.16533 19.3101 8.77867 19.0968 9.344C18.8888 9.90933 18.5874 10.4 18.1927 10.816C17.8034 11.2267 17.3261 11.5493 16.7608 11.784C16.1954 12.0187 15.5608 12.136 14.8568 12.136C14.1528 12.136 13.5181 12.0187 12.9528 11.784C12.3874 11.5493 11.9074 11.2267 11.5128 10.816C11.1181 10.4 10.8141 9.90933 10.6008 9.344C10.3928 8.77867 10.2888 8.16533 10.2888 7.504V0.535999H11.8328V7.496C11.8328 7.976 11.8994 8.416 12.0328 8.816C12.1714 9.216 12.3688 9.56 12.6248 9.848C12.8861 10.136 13.2034 10.3627 13.5768 10.528C13.9554 10.688 14.3821 10.768 14.8568 10.768Z" fill="#222222"/>
</svg>
