<svg width="25" height="25" viewBox="0 0 25 25" fill="none" xmlns="http://www.w3.org/2000/svg">
<path id="Vector" d="M12.1233 0.390625C5.43384 0.390625 0.013916 5.81055 0.013916 12.5C0.013916 19.1895 5.43384 24.6094 12.1233 24.6094C18.8127 24.6094 24.2327 19.1895 24.2327 12.5C24.2327 5.81055 18.8127 0.390625 12.1233 0.390625ZM18.0706 8.68652L16.0833 18.0518C15.9368 18.7158 15.5413 18.877 14.9895 18.5645L11.9622 16.333L10.5022 17.7393C10.3411 17.9004 10.2043 18.0371 9.89185 18.0371L10.1067 14.9561L15.717 9.8877C15.9612 9.67285 15.6633 9.55078 15.3411 9.76562L8.40747 14.1309L5.41919 13.1982C4.76978 12.9932 4.75513 12.5488 5.55591 12.2363L17.2307 7.73437C17.7727 7.53906 18.2463 7.86621 18.0706 8.68652Z" fill="black"/>
</svg>
