<svg width="22" height="23" viewBox="0 0 22 23" fill="none" xmlns="http://www.w3.org/2000/svg">
<path id="Vector" d="M18.5986 3.81641C16.5527 1.76562 13.8281 0.637695 10.9326 0.637695C4.95605 0.637695 0.0927734 5.50098 0.0927734 11.4775C0.0927734 13.3867 0.59082 15.252 1.53809 16.8975L0 22.5127L5.74707 21.0039C7.3291 21.8682 9.11133 22.3223 10.9277 22.3223H10.9326C16.9043 22.3223 21.875 17.459 21.875 11.4824C21.875 8.58691 20.6445 5.86719 18.5986 3.81641ZM10.9326 20.4961C9.31152 20.4961 7.72461 20.0615 6.34277 19.2412L6.01562 19.0459L2.60742 19.9395L3.51562 16.6143L3.30078 16.2725C2.39746 14.8369 1.92383 13.1816 1.92383 11.4775C1.92383 6.51172 5.9668 2.46875 10.9375 2.46875C13.3447 2.46875 15.6055 3.40625 17.3047 5.11035C19.0039 6.81445 20.0488 9.0752 20.0439 11.4824C20.0439 16.4531 15.8984 20.4961 10.9326 20.4961ZM15.874 13.748C15.6055 13.6113 14.2725 12.957 14.0234 12.8691C13.7744 12.7764 13.5938 12.7324 13.4131 13.0059C13.2324 13.2793 12.7148 13.8848 12.5537 14.0703C12.3975 14.251 12.2363 14.2754 11.9678 14.1387C10.376 13.3428 9.33105 12.7178 8.28125 10.916C8.00293 10.4375 8.55957 10.4717 9.07715 9.43652C9.16504 9.25586 9.12109 9.09961 9.05273 8.96289C8.98438 8.82617 8.44238 7.49316 8.21777 6.95117C7.99805 6.42383 7.77344 6.49707 7.60742 6.4873C7.45117 6.47754 7.27051 6.47754 7.08984 6.47754C6.90918 6.47754 6.61621 6.5459 6.36719 6.81445C6.11816 7.08789 5.41992 7.74219 5.41992 9.0752C5.41992 10.4082 6.3916 11.6973 6.52344 11.8779C6.66016 12.0586 8.43262 14.793 11.1523 15.9697C12.8711 16.7119 13.5449 16.7754 14.4043 16.6484C14.9268 16.5703 16.0059 15.9941 16.2305 15.3594C16.4551 14.7246 16.4551 14.1826 16.3867 14.0703C16.3232 13.9482 16.1426 13.8799 15.874 13.748Z" fill="black"/>
</svg>
