<svg width="122" height="39" viewBox="0 0 122 39" fill="none" xmlns="http://www.w3.org/2000/svg">
<rect width="122" height="39" fill="#A69D9D"/>
<g clip-path="url(#clip0_641_2)">
<rect width="1920" height="5600" transform="translate(-760 -4858)" fill="#FEFCFB"/>
</g>
<g clip-path="url(#clip1_641_2)">
<path fill-rule="evenodd" clip-rule="evenodd" d="M75.1755 29.9128C68.1338 35.2393 57.9271 38.0812 49.1394 38.0812C36.8177 38.0812 25.7249 33.4043 17.3328 25.6256C16.6735 25.0139 17.2642 24.1803 18.0555 24.6566C27.1122 30.0643 38.3104 33.3176 49.8779 33.3176C57.6792 33.3176 66.2612 31.6612 74.1522 28.2239C75.3443 27.7042 76.3412 29.025 75.1755 29.9128Z" fill="#FF9900"/>
<path fill-rule="evenodd" clip-rule="evenodd" d="M78.1032 26.4754C77.2065 25.2954 72.1533 25.9179 69.8852 26.1939C69.1942 26.2806 69.0887 25.6635 69.7111 25.2196C73.7357 22.3127 80.3397 23.1518 81.1098 24.1261C81.8799 25.1059 80.9093 31.8994 77.1274 35.1418C76.5471 35.6398 75.9933 35.3746 76.2518 34.7142C77.101 32.5381 79.0052 27.6609 78.1032 26.4754Z" fill="#FF9900"/>
<path fill-rule="evenodd" clip-rule="evenodd" d="M70.0433 4.69838V1.87273C70.0433 1.4451 70.3598 1.1582 70.7396 1.1582H83.0667C83.4623 1.1582 83.7787 1.45051 83.7787 1.87273V4.2924C83.7735 4.69838 83.4412 5.22887 82.8504 6.0679L76.4627 15.4272C78.8363 15.3677 81.3418 15.7303 83.4939 16.9753C83.9792 17.2568 84.1111 17.6682 84.148 18.0742V21.0893C84.148 21.5007 83.7049 21.9825 83.2407 21.7335C79.4482 19.6927 74.4108 19.4708 70.2174 21.7551C69.7901 21.9933 69.3418 21.517 69.3418 21.1056V18.242C69.3418 17.7819 69.3471 16.997 69.7954 16.2987L77.1959 5.4075H70.7554C70.3598 5.4075 70.0433 5.12061 70.0433 4.69838Z" fill="black"/>
<path fill-rule="evenodd" clip-rule="evenodd" d="M25.0761 22.3295H21.3258C20.9671 22.3025 20.6823 22.0264 20.6559 21.6745V1.92207C20.6559 1.52692 20.9776 1.21295 21.3785 1.21295H24.8757C25.2396 1.22918 25.5297 1.51609 25.5561 1.87335V4.45541H25.6247C26.5372 1.95996 28.2515 0.796143 30.5618 0.796143C32.9091 0.796143 34.3755 1.95996 35.4304 4.45541C36.3377 1.95996 38.4001 0.796143 40.6102 0.796143C42.1821 0.796143 43.9016 1.46196 44.9513 2.95598C46.1381 4.6178 45.8955 7.03205 45.8955 9.14859L45.8902 21.615C45.8902 22.0102 45.5685 22.3295 45.1676 22.3295H41.4225C41.048 22.3025 40.7473 21.9939 40.7473 21.615V11.146C40.7473 10.3124 40.8212 8.23377 40.6418 7.44345C40.3623 6.11724 39.5236 5.74373 38.437 5.74373C37.5298 5.74373 36.5803 6.36624 36.1952 7.36226C35.8102 8.35827 35.8471 10.0255 35.8471 11.146V21.615C35.8471 22.0102 35.5254 22.3295 35.1245 22.3295H31.3794C30.9996 22.3025 30.7043 21.9939 30.7043 21.615L30.699 11.146C30.699 8.94289 31.0524 5.70043 28.3886 5.70043C25.6933 5.70043 25.7988 8.86169 25.7988 11.146V21.615C25.7988 22.0102 25.477 22.3295 25.0761 22.3295" fill="black"/>
<path fill-rule="evenodd" clip-rule="evenodd" d="M94.3913 0.796143C99.9561 0.796143 102.968 5.70043 102.968 11.9363C102.968 17.9611 99.6396 22.7409 94.3913 22.7409C88.9266 22.7409 85.9517 17.8366 85.9517 11.7252C85.9517 5.57593 88.9635 0.796143 94.3913 0.796143ZM94.4229 4.82892C91.6589 4.82892 91.4849 8.69388 91.4849 11.1027C91.4849 13.517 91.4479 18.6703 94.3913 18.6703C97.2976 18.6703 97.4348 14.513 97.4348 11.9796C97.4348 10.3124 97.3662 8.32038 96.8757 6.73975C96.4537 5.36482 95.615 4.82892 94.4229 4.82892Z" fill="black"/>
<path fill-rule="evenodd" clip-rule="evenodd" d="M110.184 22.3295H106.449C106.075 22.3025 105.774 21.9939 105.774 21.615L105.769 1.85711C105.801 1.49443 106.112 1.21295 106.492 1.21295H109.968C110.295 1.22918 110.564 1.45654 110.638 1.76509V4.78561H110.706C111.756 2.08447 113.227 0.796143 115.817 0.796143C117.5 0.796143 119.14 1.41865 120.195 3.12378C121.176 4.70441 121.176 7.36226 121.176 9.27308V21.707C121.134 22.0535 120.823 22.3295 120.454 22.3295H116.693C116.35 22.3025 116.065 22.0426 116.028 21.707V10.9782C116.028 8.81839 116.271 5.65712 113.681 5.65712C112.768 5.65712 111.93 6.28505 111.513 7.23775C110.986 8.44488 110.917 9.64659 110.917 10.9782V21.615C110.912 22.0102 110.585 22.3295 110.184 22.3295" fill="black"/>
<path fill-rule="evenodd" clip-rule="evenodd" d="M60.2165 12.8942C60.2165 14.3937 60.2534 15.6441 59.5149 16.9757C58.9189 18.0584 57.9694 18.7242 56.9198 18.7242C55.4798 18.7242 54.6358 17.5982 54.6358 15.9364C54.6358 12.6561 57.5 12.0606 60.2165 12.0606V12.8942ZM63.9985 22.2752C63.7505 22.5025 63.3919 22.5188 63.1123 22.3672C61.8675 21.3062 61.6406 20.8136 60.9602 19.8014C58.9031 21.9558 57.442 22.6 54.7782 22.6C51.6186 22.6 49.1659 20.6025 49.1659 16.6022C49.1659 13.4789 50.8116 11.3515 53.1641 10.3122C55.2002 9.39194 58.0433 9.22955 60.2165 8.97514V8.47713C60.2165 7.56231 60.285 6.47968 59.7576 5.68937C59.3039 4.98025 58.4283 4.68794 57.6529 4.68794C56.2235 4.68794 54.9523 5.44036 54.6411 6.99934C54.5778 7.34579 54.3299 7.68681 53.987 7.70305L50.3527 7.30248C50.0468 7.23211 49.7039 6.97769 49.7936 6.49593C50.627 1.97056 54.6147 0.606445 58.1804 0.606445C60.0055 0.606445 62.3897 1.10445 63.8297 2.52269C65.6547 4.27113 65.4807 6.60419 65.4807 9.14294V15.1407C65.4807 16.9433 66.2086 17.7336 66.8943 18.7079C67.1316 19.0544 67.1844 19.4712 66.8784 19.731C66.1136 20.386 64.7527 21.604 64.0037 22.286L63.9984 22.2752" fill="black"/>
<path fill-rule="evenodd" clip-rule="evenodd" d="M11.0506 12.8945C11.0506 14.3939 11.0875 15.6443 10.349 16.976C9.75298 18.0586 8.8088 18.7244 7.75386 18.7244C6.31385 18.7244 5.47517 17.5985 5.47517 15.9366C5.47517 12.6563 8.33935 12.0609 11.0506 12.0609V12.8945ZM14.8325 22.2754C14.5846 22.5028 14.226 22.519 13.9464 22.3674C12.7016 21.3065 12.48 20.8139 11.7943 19.8016C9.73715 21.956 8.28133 22.6002 5.61231 22.6002C2.45802 22.6002 0 20.6028 0 16.6025C0 13.4791 1.65099 11.3517 3.99825 10.3124C6.03429 9.39218 8.87737 9.22979 11.0506 8.97538V8.47737C11.0506 7.56255 11.1191 6.47992 10.5969 5.68961C10.138 4.98049 9.26243 4.68818 8.49232 4.68818C7.06287 4.68818 5.78638 5.44061 5.47517 6.99958C5.41187 7.34603 5.16396 7.68705 4.82638 7.70329L1.18682 7.30272C0.88088 7.23235 0.543297 6.97793 0.627692 6.49617C1.46638 1.9708 5.4488 0.606689 9.01452 0.606689C10.8396 0.606689 13.2238 1.1047 14.6638 2.52293C16.4888 4.27137 16.3147 6.60443 16.3147 9.14318V15.1409C16.3147 16.9435 17.0427 17.7338 17.7284 18.7082C17.971 19.0546 18.0238 19.4714 17.7178 19.7312C16.953 20.3862 15.5921 21.6042 14.8431 22.2862L14.8326 22.2754" fill="black"/>
</g>
<defs>
<clipPath id="clip0_641_2">
<rect width="1920" height="5600" fill="white" transform="translate(-760 -4858)"/>
</clipPath>
<clipPath id="clip1_641_2">
<rect width="121.176" height="37.4751" fill="white" transform="translate(0 0.606445)"/>
</clipPath>
</defs>
</svg>
