<svg width="113" height="39" viewBox="0 0 113 39" fill="none" xmlns="http://www.w3.org/2000/svg">
<rect width="113" height="39" fill="#A69D9D"/>
<g clip-path="url(#clip0_641_2)">
<rect width="1920" height="5600" transform="translate(-1324 -4858)" fill="#FEFCFB"/>
</g>
<g clip-path="url(#clip1_641_2)">
<path d="M48.2673 19.8245C48.2673 25.0262 44.1624 28.8593 39.1248 28.8593C34.0872 28.8593 29.9823 25.0262 29.9823 19.8245C29.9823 14.5862 34.0872 10.7898 39.1248 10.7898C44.1624 10.7898 48.2673 14.5862 48.2673 19.8245ZM44.2652 19.8245C44.2652 16.574 41.8861 14.3499 39.1248 14.3499C36.3636 14.3499 33.9845 16.574 33.9845 19.8245C33.9845 23.0425 36.3636 25.2992 39.1248 25.2992C41.8861 25.2992 44.2652 23.0384 44.2652 19.8245Z" fill="#EA4335"/>
<path d="M67.9906 19.8245C67.9906 25.0262 63.8857 28.8593 58.8481 28.8593C53.8105 28.8593 49.7056 25.0262 49.7056 19.8245C49.7056 14.5903 53.8105 10.7898 58.8481 10.7898C63.8857 10.7898 67.9906 14.5862 67.9906 19.8245ZM63.9884 19.8245C63.9884 16.574 61.6093 14.3499 58.8481 14.3499C56.0868 14.3499 53.7077 16.574 53.7077 19.8245C53.7077 23.0425 56.0868 25.2992 58.8481 25.2992C61.6093 25.2992 63.9884 23.0384 63.9884 19.8245Z" fill="#FBBC05"/>
<path d="M86.892 11.3356V27.5558C86.892 34.228 82.9227 36.9531 78.2302 36.9531C73.8131 36.9531 71.1545 34.0243 70.1519 31.6292L73.6364 30.1913C74.2568 31.6618 75.7772 33.397 78.2261 33.397C81.2298 33.397 83.0912 31.5599 83.0912 28.1016V26.8022H82.9515C82.0557 27.898 80.3299 28.8552 78.1522 28.8552C73.5953 28.8552 69.4205 24.9203 69.4205 19.8571C69.4205 14.7573 73.5953 10.7898 78.1522 10.7898C80.3258 10.7898 82.0516 11.747 82.9515 12.8102H83.0912V11.3397H86.892V11.3356ZM83.3747 19.8571C83.3747 16.6758 81.2339 14.3499 78.5096 14.3499C75.7484 14.3499 73.435 16.6758 73.435 19.8571C73.435 23.0059 75.7484 25.2992 78.5096 25.2992C81.2339 25.2992 83.3747 23.0059 83.3747 19.8571Z" fill="#4285F4"/>
<path d="M93.1582 1.82812V28.3051H89.2546V1.82812H93.1582Z" fill="#34A853"/>
<path d="M108.37 22.7985L111.476 24.8515C110.474 26.322 108.058 28.8556 103.883 28.8556C98.7054 28.8556 94.8389 24.8882 94.8389 19.8209C94.8389 14.4481 98.7383 10.7861 103.435 10.7861C108.164 10.7861 110.478 14.5173 111.234 16.5337L111.649 17.5602L99.4656 22.5623C100.398 24.3749 101.849 25.2996 103.883 25.2996C105.921 25.2996 107.334 24.3057 108.37 22.7985ZM98.8082 19.548L106.952 16.1956C106.504 15.0673 105.157 14.2811 103.57 14.2811C101.537 14.2811 98.7054 16.0612 98.8082 19.548Z" fill="#EA4335"/>
<path d="M15.2066 17.4745V13.6415H28.2362C28.3636 14.3095 28.4294 15.0997 28.4294 15.9551C28.4294 18.8309 27.6363 22.387 25.0805 24.9206C22.5946 27.4869 19.4183 28.8555 15.2107 28.8555C7.41184 28.8555 0.853882 22.5581 0.853882 14.8268C0.853882 7.09554 7.41184 0.798096 15.2107 0.798096C19.5252 0.798096 22.5987 2.47633 24.908 4.66373L22.1796 7.36845C20.5236 5.82872 18.2801 4.63114 15.2066 4.63114C9.51154 4.63114 5.05739 9.1811 5.05739 14.8268C5.05739 20.4725 9.51154 25.0225 15.2066 25.0225C18.9006 25.0225 21.0044 23.552 22.3522 22.2159C23.4451 21.1324 24.1642 19.5845 24.4477 17.4704L15.2066 17.4745Z" fill="#4285F4"/>
</g>
<defs>
<clipPath id="clip0_641_2">
<rect width="1920" height="5600" fill="white" transform="translate(-1324 -4858)"/>
</clipPath>
<clipPath id="clip1_641_2">
<rect width="111.765" height="37.4751" fill="white" transform="translate(0.705811 0.606445)"/>
</clipPath>
</defs>
</svg>
