<svg width="144" height="31" viewBox="0 0 144 31" fill="none" xmlns="http://www.w3.org/2000/svg">
<rect width="144" height="31" fill="#A69D9D"/>
<g clip-path="url(#clip0_641_2)">
<rect width="1920" height="5600" transform="translate(-468 -4948)" fill="#FEFCFB"/>
</g>
<g clip-path="url(#clip1_641_2)">
<path d="M50.8983 17.601L50.0428 20.0085H49.9715C49.829 19.4656 49.5676 18.6395 49.1398 17.6482L44.5536 6.20047H40.0623V24.446H43.0327V13.1871C43.0327 12.479 43.0327 11.6765 43.0089 10.6851C42.9852 10.1895 42.9377 9.8118 42.9139 9.52856H42.9852C43.1278 10.2367 43.2941 10.7559 43.4129 11.0864L48.926 24.3988H51.0171L56.4827 10.9684C56.6015 10.6615 56.7203 10.0478 56.8391 9.52856H56.9104C56.8391 10.874 56.7916 12.0777 56.7678 12.8094V24.3752H59.9283V6.15326H55.6034L50.8983 17.601ZM62.9225 11.2988H66.0117V24.3752H62.9225V11.2988ZM64.4908 5.7756C63.968 5.7756 63.5403 5.96443 63.1839 6.29488C62.8274 6.62533 62.6373 7.05019 62.6373 7.56947C62.6373 8.06514 62.8274 8.49 63.1839 8.82045C63.5403 9.1509 63.968 9.31613 64.4908 9.31613C65.0136 9.31613 65.4651 9.1273 65.7978 8.82045C66.1543 8.49 66.3444 8.06514 66.3444 7.56947C66.3444 7.0738 66.1543 6.64893 65.7978 6.29488C65.4889 5.96443 65.0374 5.7756 64.4908 5.7756ZM76.9665 11.1808C76.3962 11.0628 75.8021 10.992 75.2318 10.992C73.8298 10.992 72.5465 11.2988 71.4772 11.9125C70.4079 12.5262 69.5524 13.3759 69.0058 14.4381C68.4355 15.5238 68.1504 16.7748 68.1504 18.2146C68.1504 19.4656 68.4355 20.575 68.9821 21.5899C69.5286 22.5813 70.289 23.3838 71.3109 23.9267C72.2851 24.4696 73.4258 24.7528 74.709 24.7528C76.1823 24.7528 77.4418 24.446 78.4398 23.8795L78.4636 23.8559V21.0235L78.3448 21.1179C77.8933 21.4483 77.3705 21.7316 76.8477 21.8968C76.3011 22.0856 75.8021 22.18 75.3744 22.18C74.1387 22.18 73.1644 21.826 72.4753 21.0471C71.7624 20.2917 71.4059 19.2532 71.4059 17.955C71.4059 16.6096 71.7624 15.5474 72.499 14.7685C73.2357 13.9896 74.21 13.5884 75.3981 13.5884C76.3962 13.5884 77.418 13.9188 78.3448 14.5797L78.4636 14.6741V11.6765L78.4398 11.6529C78.0358 11.4876 77.5843 11.2988 76.9665 11.1808ZM87.1609 11.0864C86.4005 11.0864 85.6876 11.3224 85.0697 11.8181C84.5469 12.243 84.1905 12.8566 83.8816 13.5884H83.8578V11.2988H80.7686V24.3752H83.8578V17.6954C83.8578 16.5624 84.0954 15.6183 84.6182 14.9338C85.141 14.2257 85.8064 13.8716 86.6143 13.8716C86.8995 13.8716 87.1846 13.9424 87.5411 13.9896C87.8738 14.084 88.1114 14.1784 88.2777 14.2965L88.3966 14.3909V11.3224L88.3253 11.2988C88.1114 11.1572 87.6837 11.0864 87.1609 11.0864ZM95.573 11.0156C93.4106 11.0156 91.6759 11.6529 90.464 12.9039C89.2283 14.1548 88.6342 15.8779 88.6342 18.0494C88.6342 20.0793 89.252 21.7316 90.4402 22.9353C91.6284 24.1155 93.2442 24.7292 95.2641 24.7292C97.379 24.7292 99.0662 24.0919 100.278 22.8173C101.514 21.5427 102.108 19.8433 102.108 17.7426C102.108 15.6655 101.538 14.0132 100.373 12.8094C99.2563 11.6057 97.6167 11.0156 95.573 11.0156ZM98.0444 21.0707C97.4741 21.8024 96.5711 22.1564 95.4542 22.1564C94.3374 22.1564 93.4344 21.8024 92.7927 21.0235C92.1511 20.2917 91.8422 19.2296 91.8422 17.8842C91.8422 16.4916 92.1749 15.4294 92.7927 14.6741C93.4344 13.9188 94.3136 13.5412 95.4305 13.5412C96.5236 13.5412 97.379 13.8952 97.9969 14.6269C98.6147 15.3586 98.9474 16.4208 98.9474 17.8134C98.8999 19.2296 98.6385 20.339 98.0444 21.0707ZM108.999 16.7276C108.025 16.3264 107.407 16.0195 107.122 15.7599C106.884 15.5238 106.765 15.1934 106.765 14.7685C106.765 14.4145 106.908 14.0604 107.265 13.8244C107.621 13.5884 108.025 13.4703 108.619 13.4703C109.142 13.4703 109.688 13.5648 110.211 13.7064C110.734 13.848 111.209 14.0604 111.589 14.3437L111.708 14.4381V11.5585L111.637 11.5349C111.28 11.3932 110.805 11.2516 110.235 11.1336C109.665 11.0392 109.142 10.992 108.714 10.992C107.241 10.992 106.029 11.346 105.078 12.1249C104.128 12.8566 103.676 13.848 103.676 15.0046C103.676 15.6183 103.771 16.1611 103.985 16.6096C104.199 17.0581 104.508 17.4829 104.936 17.837C105.363 18.1674 105.981 18.5451 106.837 18.8991C107.55 19.206 108.096 19.442 108.429 19.6308C108.762 19.8197 108.975 20.0321 109.142 20.1973C109.261 20.3862 109.332 20.6222 109.332 20.929C109.332 21.8024 108.667 22.2272 107.312 22.2272C106.789 22.2272 106.243 22.1328 105.601 21.9204C104.959 21.708 104.365 21.4011 103.866 21.0471L103.748 20.9526V23.9503L103.819 23.9739C104.27 24.1863 104.817 24.3279 105.482 24.4932C106.148 24.6112 106.742 24.7056 107.265 24.7056C108.857 24.7056 110.164 24.3515 111.09 23.5726C112.041 22.8173 112.54 21.8496 112.54 20.5986C112.54 19.7253 112.302 18.9463 111.78 18.3563C111.09 17.7898 110.235 17.1997 108.999 16.7276ZM120.691 11.0156C118.528 11.0156 116.794 11.6529 115.582 12.9039C114.37 14.1548 113.752 15.8779 113.752 18.0494C113.752 20.0793 114.37 21.7316 115.558 22.9353C116.746 24.1155 118.362 24.7292 120.382 24.7292C122.497 24.7292 124.184 24.0919 125.396 22.8173C126.631 21.5427 127.226 19.8433 127.226 17.7426C127.226 15.6655 126.655 14.0132 125.491 12.8094C124.374 11.6057 122.734 11.0156 120.691 11.0156ZM123.138 21.0707C122.568 21.8024 121.665 22.1564 120.548 22.1564C119.407 22.1564 118.528 21.8024 117.887 21.0235C117.245 20.2917 116.936 19.2296 116.936 17.8842C116.936 16.4916 117.269 15.4294 117.887 14.6741C118.528 13.9188 119.407 13.5412 120.524 13.5412C121.594 13.5412 122.473 13.8952 123.091 14.6269C123.709 15.3586 124.041 16.4208 124.041 17.8134C124.041 19.2296 123.732 20.339 123.138 21.0707ZM143.741 13.8244V11.2988H140.628V7.42785L140.533 7.45145L137.586 8.32478L137.515 8.34838V11.2988H132.857V9.64657C132.857 8.89126 133.048 8.30118 133.38 7.92352C133.713 7.54587 134.212 7.35704 134.83 7.35704C135.258 7.35704 135.709 7.45145 136.208 7.66388L136.327 7.73469V5.0675L136.256 5.0439C135.828 4.90228 135.257 4.80786 134.521 4.80786C133.594 4.80786 132.786 5.02029 132.049 5.37434C131.313 5.7756 130.766 6.31848 130.362 7.05019C129.958 7.7583 129.744 8.56082 129.744 9.48135V11.2988H127.582V13.8008H129.744V24.3752H132.857V13.8244H137.515V20.5514C137.515 23.313 138.822 24.7056 141.436 24.7056C141.864 24.7056 142.315 24.6348 142.743 24.564C143.194 24.4696 143.527 24.3515 143.717 24.2571L143.741 24.2335V21.708L143.622 21.8024C143.432 21.9204 143.266 22.0148 142.981 22.0856C142.743 22.1564 142.529 22.18 142.363 22.18C141.745 22.18 141.317 22.0384 141.008 21.6844C140.723 21.3539 140.58 20.811 140.58 20.0085V13.8244H143.741Z" fill="#737373"/>
<path d="M0.235291 0.0634766H14.8021V14.5324H0.235291V0.0634766Z" fill="#F25022"/>
<path d="M16.3228 0.0634766H30.8897V14.5324H16.3228V0.0634766Z" fill="#7FBA00"/>
<path d="M0.235291 16.043H14.8021V30.5119H0.235291V16.043Z" fill="#00A4EF"/>
<path d="M16.3228 16.043H30.8897V30.5119H16.3228V16.043Z" fill="#FFB900"/>
</g>
<defs>
<clipPath id="clip0_641_2">
<rect width="1920" height="5600" fill="white" transform="translate(-468 -4948)"/>
</clipPath>
<clipPath id="clip1_641_2">
<rect width="143.529" height="30.4485" fill="white" transform="translate(0.235291 0.0634766)"/>
</clipPath>
</defs>
</svg>
