<svg width="116" height="41" viewBox="0 0 116 41" fill="none" xmlns="http://www.w3.org/2000/svg">
<g id="OLA logo" clip-path="url(#clip0_662_2584)">
<g id="Group">
<path id="Vector" fill-rule="evenodd" clip-rule="evenodd" d="M101.972 18.9301L94.6341 31.6181L88.3735 31.643L101.972 7.76134L115.52 31.643H109.16L101.972 18.9288V18.9301ZM82.2133 26.1196H89.2252L85.9696 31.643H76.8304L76.8552 24.9176V7.90817H82.2393L82.2145 26.1196H82.2133ZM62.9827 7.90941C69.6685 7.9343 75.0774 13.235 75.0526 19.7874C75.0278 26.3162 69.6189 31.6181 62.9319 31.6181C56.2709 31.5932 50.8619 26.2925 50.8619 19.7389C50.8867 13.2101 56.2956 7.90941 62.9827 7.90941ZM62.9579 26.096C66.5382 26.096 69.4169 23.2727 69.4169 19.7874C69.4429 16.3034 66.5382 13.4552 62.9827 13.4552C59.4259 13.4303 56.5213 16.2785 56.5213 19.7638C56.4965 23.2478 59.4011 26.096 62.9567 26.096H62.9579ZM40.8958 17.9023C40.8214 16.9193 40.5698 15.619 40.1941 14.3685C39.4212 11.7855 38.0774 9.41092 36.263 7.42165C35.3109 6.39138 34.2348 5.43328 32.6306 4.30471C31.4077 3.69899 30.2053 3.05242 29.0255 2.36611C28.2494 1.92438 27.3221 1.38312 26.096 0.991165C24.6422 0.646748 23.1562 0.457807 21.6628 0.427502C20.2123 0.377731 18.7581 0.502159 17.356 0.770926C15.8782 1.01605 14.6509 1.408 13.0232 1.8012C9.34118 3.39638 6.48734 5.80159 4.03269 8.99319C-4.53131 20.9944 3.20704 37.8072 17.506 39.7943C19.8602 40.1141 22.2145 39.9909 24.4422 39.4758L26.0204 39.059C26.07 39.0341 26.1456 39.0092 26.1952 39.0092L27.999 38.3223C28.0982 38.2726 28.1738 38.2477 28.2742 38.1992L29.0255 37.8557C30.4669 37.1417 31.82 36.2606 33.0571 35.2303C31.931 36.2572 30.7064 37.1695 29.4011 37.954L29.4755 38.0038C29.7272 37.9291 29.9516 37.8557 30.202 37.8072C30.202 37.8072 30.202 38.1992 30.1524 38.1257C29.752 38.4206 30.378 38.1506 31.1789 37.7325C31.981 37.3157 32.757 36.7993 33.4575 36.2108C34.4852 35.3522 35.3865 34.419 36.6634 32.8985C37.9651 30.6152 39.5941 28.6268 40.3454 25.9516C40.5958 25.2399 40.8202 24.4062 40.9714 23.5464C41.1202 22.6878 41.2219 21.8044 41.2219 20.8961C41.1971 19.9877 41.0967 19.0545 40.8958 17.9023ZM22.3645 38.0772C26.7469 37.3891 30.4276 34.9603 33.4327 31.6467C34.2596 30.4435 34.9104 29.3386 35.7113 28.1366C36.713 25.6816 36.6386 23.4979 36.9634 21.9525C37.3651 19.1528 36.413 16.8957 35.6121 14.4905C34.3848 11.6921 32.757 9.60663 29.902 7.98656C22.6893 3.51956 12.8731 4.77007 8.19072 11.4469C8.16593 11.4469 8.03947 11.6186 7.78905 11.9621C8.1151 10.5884 8.94199 9.77834 9.76765 8.99195C12.2223 6.97993 15.0774 5.38351 18.3329 4.5996C22.0149 4.20641 25.6696 4.59961 28.9499 6.19478C33.8592 8.99195 37.1147 13.3868 37.9403 18.5879V23.3996C36.9138 31.2784 30.1524 37.2672 22.3645 38.0772ZM40.3702 20.1594C40.1941 8.62488 28.7503 0.844339 17.6064 2.41588C14.3509 3.22466 10.7941 4.84473 8.2651 7.10312C7.03778 7.9119 6.46255 9.41003 5.23522 10.612C0.325924 17.804 1.17885 27.008 7.2882 32.6048C8.07187 33.3824 8.90865 34.1042 9.79244 34.7649C4.68479 31.6953 2.38014 27.0553 1.57928 21.4124C1.57928 19.3992 1.97971 17.4108 2.40494 15.3988C5.26126 6.58674 14.2505 0.181133 24.043 1.8012C25.6708 2.19439 27.2986 2.61123 28.9523 3.00443C31.0053 3.81321 33.0335 5.01644 34.6613 6.61287C36.289 8.2068 37.5163 10.2201 38.7437 12.2072C39.5693 13.8036 39.971 15.8156 40.3714 17.4108C40.4458 18.3191 40.4458 19.2524 40.3714 20.1607L40.3702 20.1594Z" fill="black"/>
<path id="Vector_2" fill-rule="evenodd" clip-rule="evenodd" d="M30.203 20.3319C30.203 25.2904 26.0462 29.3157 20.9125 29.3157C15.78 29.3157 11.622 25.2904 11.622 20.3319C11.622 15.3746 15.7788 11.3494 20.9125 11.3494C26.0462 11.3494 30.203 15.3746 30.203 20.3331V20.3319Z" fill="white"/>
<path id="Vector_3" fill-rule="evenodd" clip-rule="evenodd" d="M30.2539 18.8104C30.1287 18.1236 29.9278 17.5835 29.7283 16.8233C28.9262 15.1534 27.7497 13.8532 26.1963 12.7482C20.3869 8.8959 12.3982 12.6014 11.5477 19.18C11.2229 21.7818 12.149 24.2853 13.8015 26.2002C13.3007 25.6839 12.7503 25.1451 12.3746 24.5304L12.325 24.5802C12.3746 24.727 12.5755 24.8253 12.625 24.9721C12.625 24.9721 12.4242 24.9721 12.475 24.9472C12.325 24.7768 12.4502 25.0468 12.6746 25.4138C12.8755 25.7822 13.1259 26.1268 13.4259 26.4454C13.8524 26.912 14.3024 27.3288 15.0537 27.8937C16.157 28.4574 17.1327 29.194 18.4096 29.5374C18.7604 29.637 19.1609 29.734 19.5625 29.8074C19.9878 29.8821 20.3882 29.907 20.8394 29.907C21.2647 29.907 21.7159 29.8572 22.2664 29.7577C22.834 29.6906 23.395 29.5761 23.9437 29.4155C25.1693 29.0452 26.2983 28.4079 27.25 27.549C27.7261 27.1086 28.403 26.5437 28.9274 25.807C29.3539 24.9734 29.4034 24.5553 29.6043 24.187C29.8039 23.8187 30.0543 23.4018 30.2303 22.8369C30.3738 22.1667 30.4576 21.4851 30.4808 20.8C30.456 20.1132 30.4064 19.45 30.2551 18.8116L30.2539 18.8104ZM24.2933 14.2463C25.145 14.7366 25.2702 14.81 24.819 14.4915C25.471 14.6383 25.8715 15.0066 26.2719 15.3749C27.2488 16.4798 28.0497 17.7801 28.4501 19.277C28.6757 20.9705 28.4997 22.664 27.7745 24.1621C26.4727 26.4441 24.3937 27.9659 21.9143 28.3827C21.6391 28.3827 21.3391 28.3827 21.0626 28.4076C21.7643 28.2844 22.2155 27.8427 23.4925 27.3761C24.8685 26.8858 26.4219 24.6038 27.1744 23.2774C29.3774 19.669 26.7728 16.3318 24.2933 14.2463ZM19.5861 28.4312C15.7801 28.0393 12.8494 24.9224 12.449 21.3139C12.7986 23.3272 14.0011 24.8726 15.6289 26.2475C16.2054 26.6158 17.0558 27.131 17.6323 27.4993C18.6092 27.8676 19.1844 28.2608 20.1365 28.4325H19.5861V28.4312ZM29.8274 21.8788C29.6539 22.6403 29.4778 23.3757 29.3018 24.1372C28.9262 25.0704 28.3757 26.0273 27.6244 26.7875C26.8732 27.549 25.9211 28.1376 24.9702 28.7025C24.2189 29.0945 23.2668 29.291 22.4908 29.4864C22.0395 29.5362 21.5139 29.3396 21.0626 29.3159C26.6228 29.1679 30.4287 23.9904 29.603 18.8602C29.2014 17.3633 28.4005 16.0618 27.4236 14.7615C27.0232 14.1966 26.2459 13.8532 25.6706 13.2882C22.1895 11.1045 17.5827 11.5462 14.9532 14.4181C14.5845 14.7954 14.2412 15.197 13.9255 15.62C15.3289 13.5583 17.5827 12.1111 20.2865 11.6931C21.2386 11.6682 22.2155 11.8411 23.1664 12.0128C27.374 13.2882 30.5043 17.3633 29.8274 21.8801V21.8788Z" fill="#D7DF23"/>
</g>
</g>
<defs>
<clipPath id="clip0_662_2584">
<rect width="115.294" height="39.8173" fill="white" transform="translate(0.353027 0.378906)"/>
</clipPath>
</defs>
</svg>
