<svg width="142" height="34" viewBox="0 0 142 34" fill="none" xmlns="http://www.w3.org/2000/svg">
<g id="Walmart Logo" clip-path="url(#clip0_662_2591)">
<path id="Shape" d="M50.6527 12.5553V14.4136H50.71C51.3843 13.4187 52.5038 12.247 54.9852 12.247C56.9157 12.247 58.3966 13.2213 59.0313 14.6932H59.0886C59.6307 13.949 60.2522 13.3858 60.9485 12.987C61.7727 12.5142 62.6895 12.2428 63.8443 12.2428C66.4579 12.2428 68.7718 13.9285 68.7718 18.1796V26.2419H64.7875V18.7429C64.7875 16.5885 64.0029 15.3428 62.3722 15.3428C61.1777 15.3428 60.3095 16.091 59.9789 17.012C59.8643 17.3286 59.8114 17.7602 59.8114 18.122V26.246H55.827V18.4386C55.827 16.6091 55.0734 15.3387 53.4646 15.3387C52.1776 15.3387 51.3711 16.2843 51.0405 17.0942C50.8995 17.4396 50.8554 17.8384 50.8554 18.2125V26.2419H46.8666V12.5553H50.6527ZM89.3371 12.5553V15.1372H89.4473C90.179 13.1638 91.9155 12.247 93.4405 12.247C93.824 12.247 94.0355 12.2757 94.344 12.3333V15.9184C93.9782 15.869 93.6388 15.8197 93.1628 15.8197C91.4351 15.8197 90.2319 16.7571 89.9277 18.2248C89.8616 18.5291 89.8396 18.858 89.8396 19.2362V26.246H85.7495V12.5553H89.3371ZM99.8975 8.02051V12.3292H103.353V15.8156H99.8975V20.9589C99.8975 22.6239 100.351 23.4298 101.7 23.4298C102.335 23.4298 102.802 23.3558 103.207 23.2612L103.26 26.1515C102.718 26.3406 101.563 26.5462 100.391 26.5462C99.0116 26.5462 97.8612 26.098 97.1604 25.4032C96.3583 24.6097 95.988 23.3105 95.988 21.4604V8.02051H99.8975ZM44.0899 26.2419H40.1232V8.02051H44.0899V26.2419ZM33.5119 21.3535C33.5119 21.6043 33.4899 21.8675 33.415 22.0936C33.1065 23.0433 32.0531 23.845 30.7396 23.845C29.6422 23.845 28.7695 23.2653 28.7695 22.036C28.7695 20.1571 30.9909 19.635 33.5164 19.6473V21.3535H33.5119ZM37.4743 18.0768C37.4743 14.9728 36.0551 12.247 31.2553 12.247C28.7915 12.247 26.8346 12.8924 25.768 13.468L26.5481 15.9595C27.5222 15.3839 29.078 14.9111 30.5501 14.9111C32.9875 14.907 33.3841 16.1979 33.3841 17.0243V17.2217C28.0731 17.2134 24.719 18.9279 24.719 22.4225C24.719 24.5563 26.4247 26.5544 29.3954 26.5544C31.2245 26.5544 32.7495 25.876 33.6662 24.7865H33.7544C33.7544 24.7865 34.3626 27.1505 37.7035 26.246C37.5272 25.2593 37.4699 24.2109 37.4699 22.9487V18.0768H37.4743ZM4.79278 8.02051C5.20268 9.94872 6.36625 15.5483 6.36625 15.5483C6.85548 17.8507 7.30505 20.264 7.64442 22.1717H7.70613C8.03669 20.1448 8.55677 18.2248 9.11212 15.8485L11.0734 8.02051H15.4148L17.2483 16.0499C17.7287 18.2824 18.1122 20.005 18.4163 22.0812H18.4736C18.8042 19.9845 19.2361 18.1919 19.7077 15.8978L21.4707 8.02051H25.6358L20.4746 26.2419C17.1866 26.9121 15.9261 25.6787 15.4765 23.7217C15.027 21.7606 14.1455 18.0316 14.1455 18.0316C13.6915 15.9883 13.3389 14.5493 13.0921 12.4525H13.0304C12.6778 14.5287 12.3075 15.9841 11.761 18.0275L9.59694 26.246C6.23844 26.8709 5.07486 25.9459 4.43137 23.4339C3.87603 21.2837 0.411743 8.02462 0.411743 8.02462H4.79278V8.02051ZM79.1382 21.3535C79.1382 21.6043 79.1162 21.8675 79.0413 22.0936C78.7327 23.0433 77.6793 23.845 76.3659 23.845C75.2685 23.845 74.3958 23.2653 74.3958 22.036C74.3958 20.1571 76.6171 19.635 79.1426 19.6473V21.3535H79.1382ZM83.1006 18.0768C83.1006 14.9728 81.6813 12.247 76.8816 12.247C74.4178 12.247 72.4609 12.8924 71.3943 13.468L72.1744 15.9595C73.1485 15.3839 74.7043 14.9111 76.1764 14.9111C78.6093 14.907 79.0104 16.1979 79.0104 17.0243V17.2217C73.7038 17.2134 70.3497 18.9279 70.3497 22.4225C70.3497 24.5563 72.0598 26.5544 75.026 26.5544C76.8507 26.5544 78.3801 25.876 79.2925 24.7865H79.385C79.385 24.7865 79.9933 27.1505 83.3341 26.246C83.1578 25.2593 83.1006 24.2109 83.1006 22.9487V18.0768Z" fill="#041E42"/>
<path id="Shape_2" d="M119.433 19.9668C119.824 20.6322 119.797 21.375 119.38 21.7141L112.166 26.6555C111.415 27.0805 110.29 26.5653 109.653 25.4877C109.012 24.4059 109.126 23.1995 109.877 22.7745L117.864 19.1425C118.365 18.9536 119.042 19.3014 119.433 19.9668ZM128.927 19.9668C129.322 19.3014 129.994 18.9579 130.495 19.1382L138.487 22.7702C139.238 23.1952 139.348 24.4016 138.711 25.4834C138.069 26.561 136.94 27.0719 136.193 26.6512L128.979 21.7098C128.566 21.3749 128.536 20.628 128.927 19.9668ZM124.178 22.6457C124.964 22.6457 125.61 23.0407 125.698 23.5601L126.475 32.1377C126.475 32.9878 125.46 33.6833 124.182 33.6833C122.908 33.6833 121.889 32.9878 121.889 32.1377L122.662 23.5601C122.75 23.0407 123.396 22.6457 124.178 22.6457ZM128.979 12.866L136.193 7.92038C136.94 7.49536 138.069 8.00624 138.711 9.0881C139.348 10.17 139.238 11.3763 138.487 11.8013L130.495 15.4376C129.994 15.6179 129.318 15.2745 128.927 14.609C128.536 13.9436 128.566 13.2009 128.979 12.866ZM117.864 15.4376L109.877 11.8013C109.13 11.3763 109.016 10.17 109.653 9.0881C110.29 8.00624 111.419 7.49536 112.166 7.92038L119.38 12.866C119.797 13.1966 119.824 13.9436 119.433 14.609C119.042 15.2745 118.365 15.6179 117.864 15.4376ZM122.662 11.0157L121.889 2.43809C121.889 1.58806 122.903 0.892578 124.182 0.892578C125.46 0.892578 126.475 1.58806 126.475 2.43809L125.698 11.0157C125.61 11.5309 124.964 11.9301 124.178 11.9301C123.396 11.9301 122.75 11.5309 122.662 11.0157ZM140.661 26.6211V26.4065H140.859C140.925 26.4065 140.969 26.4494 140.969 26.5138C140.969 26.5739 140.925 26.6211 140.859 26.6211H140.661ZM140.499 27.0118C140.499 27.0333 140.516 27.0547 140.543 27.0547H140.626C140.648 27.0547 140.67 27.0333 140.67 27.0118V26.7671H140.806L140.916 27.0247C140.925 27.0418 140.938 27.0547 140.956 27.0547H141.057C141.087 27.0547 141.109 27.0247 141.096 26.9946C141.057 26.9173 141.017 26.8358 140.978 26.7542C141.043 26.7327 141.145 26.6683 141.145 26.5138C141.145 26.3507 141.008 26.2562 140.872 26.2562H140.543C140.521 26.2562 140.499 26.2777 140.499 26.2991V27.0118ZM140.143 26.6555C140.143 26.3077 140.433 26.0244 140.789 26.0244C141.145 26.0244 141.434 26.3034 141.434 26.6555C141.434 27.0032 141.149 27.2865 140.789 27.2865C140.428 27.2865 140.143 27.0032 140.143 26.6555ZM139.989 26.6555C139.989 27.0848 140.345 27.4368 140.789 27.4368C141.228 27.4368 141.588 27.0848 141.588 26.6555C141.588 26.2262 141.228 25.8741 140.789 25.8741C140.345 25.8741 139.989 26.2262 139.989 26.6555Z" fill="#FFC124"/>
</g>
<defs>
<clipPath id="clip0_662_2591">
<rect width="141.176" height="32.7907" fill="white" transform="translate(0.411743 0.892578)"/>
</clipPath>
</defs>
</svg>
