          <svg
            xmlns="http://www.w3.org/2000/svg"
            width="38"
            height="39"
            viewBox="0 0 38 39"
            fill="none"
          >
            <path
              d="M19 0C8.50403 0 0 8.71888 0 19.48C0 30.2412 8.50403 38.9601 19 38.9601C29.496 38.9601 38 30.2412 38 19.48C38 8.71888 29.496 0 19 0ZM19 35.1897C10.5343 35.1897 3.67742 28.1596 3.67742 19.48C3.67742 10.8004 10.5343 3.77033 19 3.77033C27.4657 3.77033 34.3226 10.8004 34.3226 19.48C34.3226 28.1596 27.4657 35.1897 19 35.1897ZM26.7992 14.5943L22.0339 19.48L26.7992 24.3657C27.1593 24.7349 27.1593 25.3319 26.7992 25.7011L25.0677 27.4763C24.7077 27.8454 24.1254 27.8454 23.7653 27.4763L19 22.5905L14.2347 27.4763C13.8746 27.8454 13.2923 27.8454 12.9323 27.4763L11.2008 25.7011C10.8407 25.3319 10.8407 24.7349 11.2008 24.3657L15.9661 19.48L11.2008 14.5943C10.8407 14.2251 10.8407 13.6282 11.2008 13.259L12.9323 11.4838C13.2923 11.1146 13.8746 11.1146 14.2347 11.4838L19 16.3695L23.7653 11.4838C24.1254 11.1146 24.7077 11.1146 25.0677 11.4838L26.7992 13.259C27.1593 13.6282 27.1593 14.2251 26.7992 14.5943Z"
              fill="#FF0303"
            />
          </svg>