<svg xmlns="http://www.w3.org/2000/svg"
                    width="11"
                    height="15"
                    viewBox="0 0 11 15"
                    fill="none"
                  >
                    <path
                      d="M5.5 0C2.45929 0 0 2.3475 0 5.25C0 9.1875 5.5 15 5.5 15C5.5 15 11 9.1875 11 5.25C11 2.3475 8.54071 0 5.5 0ZM5.5 7.125C4.97904 7.125 4.47942 6.92746 4.11104 6.57583C3.74267 6.22419 3.53571 5.74728 3.53571 5.25C3.53571 4.75272 3.74267 4.27581 4.11104 3.92417C4.47942 3.57254 4.97904 3.375 5.5 3.375C6.02096 3.375 6.52058 3.57254 6.88896 3.92417C7.25733 4.27581 7.46429 4.75272 7.46429 5.25C7.46429 5.74728 7.25733 6.22419 6.88896 6.57583C6.52058 6.92746 6.02096 7.125 5.5 7.125Z"
                      fill="#FF0303"
                    />
                  </svg>