                  <svg
                    xmlns="http://www.w3.org/2000/svg"
                    width="13"
                    height="12"
                    viewBox="0 0 13 12"
                    fill="none"
                  >
                    <path
                      d="M12.096 3.96145L8.34873 3.44818L6.67361 0.247595C6.62785 0.159965 6.55258 0.0890263 6.4596 0.0459067C6.22642 -0.0625878 5.94305 0.0278243 5.82645 0.247595L4.15133 3.44818L0.404073 3.96145C0.300761 3.97535 0.206305 4.02126 0.133987 4.0908C0.0465582 4.17549 -0.0016189 4.28943 4.154e-05 4.40758C0.00170198 4.52573 0.0530641 4.63843 0.142842 4.72091L2.85403 7.21211L2.2135 10.7298C2.19848 10.8117 2.20809 10.8958 2.24124 10.9728C2.27438 11.0497 2.32974 11.1164 2.40104 11.1652C2.47233 11.214 2.55671 11.243 2.6446 11.2489C2.7325 11.2548 2.82039 11.2374 2.89831 11.1986L6.25003 9.53778L9.60175 11.1986C9.69326 11.2445 9.79952 11.2598 9.90135 11.2431C10.1582 11.2014 10.3308 10.9719 10.2866 10.7298L9.64603 7.21211L12.3572 4.72091C12.431 4.65275 12.4797 4.56373 12.4945 4.46636C12.5343 4.22294 12.3543 3.99761 12.096 3.96145Z"
                      fill="#FFCA00"
                    />
                  </svg>