<svg width="1920" height="5600" viewBox="0 0 1920 5600" fill="none" xmlns="http://www.w3.org/2000/svg">
<g clip-path="url(#clip0_769_1264)">
<rect width="1920" height="5600" fill="#FEFCFB"/>
<g clip-path="url(#clip1_769_1264)">
<path d="M1745.96 1999.75L1865.32 1969.7C1865.95 1969.54 1866.64 1969.64 1867.17 1970.02C1868.32 1970.86 1868.31 1972.47 1867.36 1973.34L1843.3 1995.33C1843.3 1995.34 1843.3 1995.34 1843.3 1995.34L1847.69 2040.18C1847.84 2041.74 1846.25 2042.96 1844.79 2042.39L1812.74 2029.91C1812.73 2029.91 1812.73 2029.91 1812.73 2029.92L1796.13 2045.36C1795.34 2046.1 1794.08 2046.12 1793.27 2045.41L1765.68 2021.39C1764.79 2020.61 1764.69 2019.26 1765.47 2018.37C1766.25 2017.48 1767.6 2017.39 1768.49 2018.16L1794.62 2040.91C1794.62 2040.92 1794.63 2040.92 1794.63 2040.91L1827.73 2010.11C1827.74 2010.1 1827.74 2010.09 1827.73 2010.09L1752.76 2004.45C1752.75 2004.45 1752.75 2004.46 1752.76 2004.47L1760.56 2011.27C1761.45 2012.04 1761.63 2013.4 1760.88 2014.31C1760.11 2015.24 1758.74 2015.34 1757.83 2014.56L1745.07 2003.44C1744.99 2003.37 1744.91 2003.3 1744.84 2003.21C1743.82 2002.02 1744.45 2000.13 1745.96 1999.75ZM1816.22 2026.66C1816.22 2026.67 1816.22 2026.68 1816.23 2026.68L1841.74 2036.61C1841.74 2036.61 1841.75 2036.6 1841.75 2036.59L1831.96 2012.03C1831.96 2012.03 1831.95 2012.03 1831.95 2012.03L1816.22 2026.66ZM1774.65 2001.81L1832.95 2006.19C1833.75 2006.26 1834.47 2006.79 1834.77 2007.53L1841.94 2025.51C1841.94 2025.52 1841.96 2025.52 1841.96 2025.5L1839.14 1996.79C1839.14 1996.78 1839.13 1996.78 1839.13 1996.78L1774.65 2001.79C1774.64 2001.79 1774.64 2001.81 1774.65 2001.81ZM1771.58 1997.74L1840.16 1992.41C1840.16 1992.41 1840.16 1992.41 1840.17 1992.4L1858.19 1975.93C1858.19 1975.92 1858.19 1975.91 1858.18 1975.91L1771.58 1997.72C1771.57 1997.72 1771.57 1997.74 1771.58 1997.74Z" fill="#FFE4C0"/>
<path d="M1866.5 2057.66C1867.09 2057.52 1867.69 2057.4 1868.28 2057.29C1869.44 2057.08 1870.56 2057.84 1870.77 2059.01C1870.98 2060.12 1870.28 2061.19 1869.19 2061.47C1869.15 2061.48 1869.1 2061.49 1869.06 2061.5C1868.53 2061.59 1868 2061.7 1867.49 2061.83C1866.34 2062.1 1865.18 2061.38 1864.91 2060.24C1864.64 2059.09 1865.36 2057.93 1866.5 2057.66Z" fill="#FFE4C0"/>
<path d="M1856.68 2061.69C1857.67 2061.07 1858.72 2060.49 1859.82 2059.98C1860.89 2059.48 1862.16 2059.93 1862.66 2061C1863.17 2062.07 1862.71 2063.34 1861.64 2063.85C1860.7 2064.29 1859.8 2064.78 1858.95 2065.31C1857.97 2065.93 1856.63 2065.63 1856.01 2064.64C1855.38 2063.64 1855.68 2062.32 1856.68 2061.69Z" fill="#FFE4C0"/>
<path d="M1883.1 2075.45C1883.03 2074.46 1882.88 2073.46 1882.65 2072.48C1882.39 2071.33 1883.12 2070.18 1884.26 2069.92C1885.42 2069.66 1886.56 2070.38 1886.82 2071.53C1887.09 2072.72 1887.28 2073.92 1887.37 2075.12C1887.46 2076.28 1886.56 2077.33 1885.4 2077.41C1884.22 2077.51 1883.2 2076.62 1883.1 2075.45Z" fill="#FFE4C0"/>
<path d="M1876.21 2090.8C1877.01 2090.27 1877.76 2089.65 1878.45 2088.97C1879.28 2088.13 1880.63 2088.13 1881.47 2088.97C1882.31 2089.8 1882.31 2091.16 1881.47 2091.99C1880.59 2092.88 1879.62 2093.67 1878.58 2094.36C1877.56 2095.04 1876.14 2094.7 1875.53 2093.63C1874.99 2092.67 1875.29 2091.41 1876.21 2090.8Z" fill="#FFE4C0"/>
<path d="M1863.08 2050C1863.56 2048.93 1864.83 2048.45 1865.91 2048.93C1866.96 2049.41 1868.01 2049.94 1869.03 2050.49C1870.06 2051.06 1870.44 2052.36 1869.87 2053.4C1869.31 2054.42 1867.98 2054.8 1866.96 2054.24C1866.05 2053.74 1865.1 2053.26 1864.15 2052.83C1863.07 2052.35 1862.59 2051.08 1863.08 2050Z" fill="#FFE4C0"/>
<path d="M1881.7 2084.16C1882.09 2083.27 1882.4 2082.33 1882.64 2081.36C1882.92 2080.22 1884.08 2079.52 1885.22 2079.8C1886.37 2080.08 1887.07 2081.23 1886.79 2082.38C1886.5 2083.58 1886.1 2084.76 1885.62 2085.87C1885.11 2087.02 1883.68 2087.49 1882.59 2086.87C1881.66 2086.33 1881.27 2085.14 1881.7 2084.16Z" fill="#FFE4C0"/>
<path d="M1879.26 2061.35C1880.2 2060.63 1881.54 2060.82 1882.26 2061.76C1883.05 2062.79 1883.74 2063.83 1884.26 2064.77C1884.84 2065.8 1884.47 2067.1 1883.44 2067.68C1883.27 2067.77 1883.1 2067.84 1882.92 2067.89C1882 2068.12 1881.01 2067.72 1880.53 2066.86C1880.23 2066.33 1879.7 2065.46 1878.85 2064.34C1878.14 2063.4 1878.32 2062.06 1879.26 2061.35Z" fill="#FFE4C0"/>
<path d="M1871.85 2054.7C1872.57 2053.77 1873.92 2053.6 1874.85 2054.33C1875.77 2055.05 1876.66 2055.8 1877.51 2056.59C1878.39 2057.38 1878.44 2058.74 1877.64 2059.61C1876.86 2060.47 1875.48 2060.52 1874.62 2059.74C1873.86 2059.03 1873.05 2058.35 1872.22 2057.7C1871.29 2056.98 1871.12 2055.63 1871.85 2054.7Z" fill="#FFE4C0"/>
<path d="M1848.99 2069.41C1849.59 2068.36 1850.31 2067.34 1851.14 2066.38C1851.92 2065.48 1853.27 2065.38 1854.16 2066.15C1855.05 2066.93 1855.15 2068.28 1854.38 2069.17C1853.73 2069.93 1853.16 2070.72 1852.7 2071.54C1852.12 2072.55 1850.79 2072.91 1849.78 2072.33C1848.75 2071.74 1848.4 2070.44 1848.99 2069.41Z" fill="#FFE4C0"/>
<path d="M1865.87 2095.55C1865.82 2094.37 1866.75 2093.38 1867.93 2093.33C1868.84 2093.3 1869.78 2093.2 1870.71 2093.02L1870.88 2092.99C1872.04 2092.76 1873.16 2093.51 1873.39 2094.67C1873.62 2095.79 1872.92 2096.88 1871.82 2097.16C1871.79 2097.17 1871.75 2097.18 1871.71 2097.18L1871.5 2097.22C1870.35 2097.44 1869.2 2097.57 1868.08 2097.61C1866.9 2097.65 1865.91 2096.73 1865.87 2095.55Z" fill="#FFE4C0"/>
<path d="M1847.02 2080.44C1846.81 2079.15 1846.73 2077.88 1846.8 2076.65C1846.86 2075.47 1847.87 2074.57 1849.05 2074.64C1850.23 2074.7 1851.13 2075.71 1851.07 2076.89C1851.02 2077.8 1851.08 2078.75 1851.24 2079.72C1851.44 2080.87 1850.64 2081.99 1849.49 2082.19C1848.34 2082.38 1847.22 2081.59 1847.02 2080.44Z" fill="#FFE4C0"/>
<path d="M1850.35 2084.43C1851.37 2083.82 1852.68 2084.16 1853.28 2085.18C1853.78 2086.02 1854.36 2086.83 1854.99 2087.58C1855.76 2088.48 1855.65 2089.83 1854.75 2090.6C1853.86 2091.35 1852.49 2091.24 1851.73 2090.35C1850.94 2089.42 1850.22 2088.41 1849.6 2087.35C1849 2086.34 1849.33 2085.03 1850.35 2084.43Z" fill="#FFE4C0"/>
<path d="M1853.46 2047.47C1853.68 2046.31 1854.81 2045.55 1855.97 2045.78C1857.1 2046 1858.24 2046.27 1859.35 2046.57C1860.24 2046.82 1860.89 2047.63 1860.92 2048.54C1860.97 2049.55 1860.28 2050.47 1859.31 2050.71C1858.96 2050.8 1858.59 2050.8 1858.22 2050.7C1857.21 2050.42 1856.18 2050.18 1855.15 2049.98C1853.99 2049.75 1853.23 2048.63 1853.46 2047.47Z" fill="#FFE4C0"/>
<path d="M1856.58 2092.13C1857.16 2091.1 1858.47 2090.74 1859.5 2091.32C1860.34 2091.8 1861.24 2092.2 1862.16 2092.51C1863.28 2092.89 1863.88 2094.1 1863.5 2095.22C1863.12 2096.32 1861.89 2096.93 1860.79 2096.56C1859.62 2096.16 1858.48 2095.65 1857.4 2095.05C1856.37 2094.47 1856 2093.16 1856.58 2092.13Z" fill="#FFE4C0"/>
<path d="M1845.1 2047C1845.11 2045.82 1846.09 2044.87 1847.27 2044.89C1847.86 2044.9 1848.46 2044.92 1849.05 2044.95C1850.17 2045 1851.08 2045.95 1851.08 2047.07C1851.09 2048.28 1850.05 2049.28 1848.84 2049.22C1848.3 2049.19 1847.75 2049.18 1847.2 2049.17C1846.02 2049.15 1845.08 2048.18 1845.1 2047Z" fill="#FFE4C0"/>
<path d="M1909.43 2105.63C1909.55 2105.11 1909.66 2104.57 1909.77 2104.04C1909.99 2102.88 1911.11 2102.12 1912.27 2102.34C1913.43 2102.57 1914.19 2103.69 1913.97 2104.85C1913.85 2105.43 1913.73 2106.02 1913.59 2106.61C1913.33 2107.74 1912.16 2108.47 1911.02 2108.2C1909.87 2107.93 1909.16 2106.78 1909.43 2105.63Z" fill="#FFE4C0"/>
<path d="M1910.44 2098.02C1910.47 2097.01 1910.46 2096 1910.4 2095C1910.34 2093.82 1911.24 2092.81 1912.42 2092.75C1913.6 2092.68 1914.61 2093.59 1914.67 2094.77C1914.73 2095.88 1914.75 2097.02 1914.71 2098.15C1914.68 2099.31 1913.68 2100.26 1912.51 2100.22C1911.33 2100.19 1910.4 2099.2 1910.44 2098.02Z" fill="#FFE4C0"/>
<path d="M1910.15 2083.42C1911.27 2083.06 1912.48 2083.68 1912.84 2084.81C1913.1 2085.61 1913.33 2086.42 1913.54 2087.24C1913.72 2087.98 1913.93 2088.7 1913.6 2089.44C1913.32 2090.03 1912.77 2090.49 1912.13 2090.63C1911.49 2090.78 1910.81 2090.62 1910.3 2090.21C1909.69 2089.71 1909.57 2089.01 1909.39 2088.28C1909.2 2087.56 1909 2086.83 1908.77 2086.11C1908.41 2084.99 1909.03 2083.78 1910.15 2083.42Z" fill="#FFE4C0"/>
<path d="M1905.62 2074.96C1906.63 2074.33 1907.94 2074.64 1908.57 2075.64C1909.17 2076.59 1909.73 2077.58 1910.24 2078.57C1910.79 2079.62 1910.38 2080.91 1909.33 2081.45C1908.29 2081.99 1906.98 2081.57 1906.45 2080.54C1905.98 2079.65 1905.48 2078.76 1904.94 2077.91C1904.32 2076.9 1904.62 2075.58 1905.62 2074.96Z" fill="#FFE4C0"/>
<path d="M1891.24 2062.48C1891.82 2061.45 1893.12 2061.09 1894.15 2061.67C1894.41 2061.82 1894.68 2061.97 1894.94 2062.13C1895.64 2062.55 1896.34 2063 1897.03 2063.48C1898 2064.15 1898.24 2065.48 1897.57 2066.45C1896.9 2067.41 1895.55 2067.65 1894.59 2066.99C1893.98 2066.57 1893.36 2066.17 1892.74 2065.8C1892.51 2065.66 1892.28 2065.52 1892.04 2065.39C1891.01 2064.81 1890.65 2063.5 1891.24 2062.48Z" fill="#FFE4C0"/>
<path d="M1899.21 2067.82C1900.03 2066.97 1901.39 2066.95 1902.23 2067.78C1903.03 2068.56 1903.81 2069.38 1904.55 2070.23C1905.33 2071.12 1905.24 2072.47 1904.35 2073.24C1903.47 2074.01 1902.1 2073.92 1901.33 2073.04C1900.67 2072.28 1899.97 2071.54 1899.25 2070.84C1898.4 2070.02 1898.39 2068.66 1899.21 2067.82Z" fill="#FFE4C0"/>
<path d="M1883.6 2059.73C1883.94 2058.6 1885.13 2057.96 1886.26 2058.3C1886.84 2058.47 1887.41 2058.66 1887.98 2058.86C1889.1 2059.25 1889.68 2060.47 1889.29 2061.59C1888.9 2062.69 1887.66 2063.28 1886.56 2062.89C1886.05 2062.72 1885.54 2062.55 1885.03 2062.39C1883.9 2062.05 1883.26 2060.86 1883.6 2059.73Z" fill="#FFE4C0"/>
</g>
<g clip-path="url(#clip2_769_1264)">
<path d="M174.036 4034.75L54.683 4004.7C54.0494 4004.54 53.3631 4004.64 52.8342 4005.02C51.6779 4005.86 51.6924 4007.47 52.637 4008.34L76.7012 4030.33C76.7036 4030.34 76.7048 4030.34 76.7045 4030.34L72.3071 4075.18C72.1622 4076.74 73.7467 4077.95 75.2108 4077.39L107.262 4064.91C107.265 4064.91 107.269 4064.91 107.273 4064.92L123.871 4080.36C124.663 4081.1 125.917 4081.12 126.732 4080.41L154.321 4056.39C155.212 4055.61 155.306 4054.26 154.53 4053.37C153.754 4052.48 152.404 4052.39 151.513 4053.16L125.382 4075.91C125.378 4075.92 125.372 4075.92 125.369 4075.91L92.267 4045.11C92.2604 4045.1 92.2643 4045.09 92.2734 4045.09L167.237 4039.45C167.247 4039.45 167.252 4039.46 167.245 4039.47L159.436 4046.27C158.548 4047.04 158.366 4048.4 159.117 4049.31C159.887 4050.24 161.265 4050.34 162.17 4049.56L174.934 4038.44C175.014 4038.37 175.09 4038.3 175.159 4038.21C176.176 4037.02 175.547 4035.13 174.036 4034.75ZM103.778 4061.66C103.784 4061.67 103.782 4061.68 103.775 4061.68L78.2639 4071.61C78.2555 4071.61 78.2473 4071.6 78.2506 4071.59L88.0375 4047.03C88.0401 4047.03 88.0488 4047.03 88.0543 4047.03L103.778 4061.66ZM145.348 4036.81L87.0527 4041.19C86.2487 4041.26 85.5253 4041.78 85.2265 4042.53L78.0637 4060.51C78.0591 4060.52 78.0425 4060.52 78.0437 4060.5L80.8604 4031.79C80.8609 4031.78 80.8658 4031.78 80.8715 4031.78L145.348 4036.79C145.36 4036.79 145.36 4036.81 145.348 4036.81ZM148.416 4032.74L79.8408 4027.41C79.8385 4027.41 79.8364 4027.41 79.8347 4027.4L61.8135 4010.93C61.8056 4010.92 61.8125 4010.91 61.823 4010.91L148.42 4032.72C148.432 4032.72 148.429 4032.74 148.416 4032.74Z" fill="#FFE4C0"/>
<path d="M53.4966 4092.66C52.9127 4092.52 52.3143 4092.4 51.7183 4092.29C50.5566 4092.08 49.4418 4092.84 49.2277 4094.01C49.0221 4095.12 49.7224 4096.19 50.8067 4096.47C50.8517 4096.48 50.8973 4096.49 50.9435 4096.5C51.4705 4096.59 51.999 4096.7 52.5145 4096.83C53.664 4097.1 54.8158 4096.38 55.0869 4095.24C55.3581 4094.09 54.6422 4092.93 53.4966 4092.66Z" fill="#FFE4C0"/>
<path d="M63.3196 4096.69C62.3321 4096.07 61.276 4095.49 60.181 4094.98C59.1135 4094.48 57.8386 4094.93 57.3351 4096C56.8317 4097.07 57.2899 4098.34 58.3584 4098.85C59.2988 4099.29 60.2032 4099.78 61.0461 4100.31C62.034 4100.93 63.3745 4100.63 63.9942 4099.64C64.6218 4098.64 64.3195 4097.32 63.3196 4096.69Z" fill="#FFE4C0"/>
<path d="M36.8956 4110.45C36.9717 4109.46 37.1234 4108.46 37.347 4107.48C37.6088 4106.33 36.8841 4105.18 35.7356 4104.92C34.584 4104.66 33.4381 4105.38 33.1763 4106.53C32.9065 4107.72 32.7232 4108.92 32.6312 4110.12C32.5416 4111.28 33.4368 4112.33 34.5991 4112.41C35.7769 4112.51 36.8049 4111.62 36.8956 4110.45Z" fill="#FFE4C0"/>
<path d="M43.7878 4125.8C42.9896 4125.27 42.2381 4124.65 41.5545 4123.97C40.7197 4123.13 39.366 4123.13 38.5299 4123.97C37.6945 4124.8 37.6934 4126.16 38.5278 4126.99C39.4117 4127.88 40.3833 4128.67 41.4172 4129.36C42.4396 4130.04 43.8635 4129.7 44.4658 4128.63C45.0086 4127.67 44.7066 4126.41 43.7878 4125.8Z" fill="#FFE4C0"/>
<path d="M56.9228 4085C56.4367 4083.93 55.1697 4083.45 54.0937 4083.93C53.0379 4084.41 51.9882 4084.94 50.9741 4085.49C49.9395 4086.06 49.5628 4087.36 50.1322 4088.4C50.6937 4089.42 52.016 4089.8 53.0367 4089.24C53.9524 4088.74 54.9005 4088.26 55.8539 4087.83C56.9303 4087.35 57.4088 4086.08 56.9228 4085Z" fill="#FFE4C0"/>
<path d="M38.3022 4119.16C37.9136 4118.27 37.5968 4117.33 37.3609 4116.36C37.0802 4115.22 35.9221 4114.52 34.7753 4114.8C33.6282 4115.08 32.926 4116.23 33.2067 4117.38C33.5006 4118.58 33.8965 4119.76 34.3826 4120.87C34.8854 4122.02 36.3205 4122.49 37.411 4121.87C38.3428 4121.33 38.7321 4120.14 38.3022 4119.16Z" fill="#FFE4C0"/>
<path d="M40.7378 4096.35C39.7972 4095.63 38.4557 4095.82 37.7415 4096.76C36.954 4097.79 36.2617 4098.83 35.7386 4099.77C35.1606 4100.8 35.527 4102.1 36.5567 4102.68C36.7256 4102.77 36.9024 4102.84 37.082 4102.89C37.9954 4103.12 38.9852 4102.72 39.4678 4101.86C39.7667 4101.33 40.3007 4100.46 41.1476 4099.34C41.8621 4098.4 41.6787 4097.06 40.7378 4096.35Z" fill="#FFE4C0"/>
<path d="M48.1529 4089.7C47.4265 4088.77 46.0831 4088.6 45.1517 4089.33C44.2339 4090.05 43.3365 4090.8 42.4853 4091.59C41.6149 4092.38 41.5569 4093.74 42.3555 4094.61C43.1439 4095.47 44.5185 4095.52 45.377 4094.74C46.1441 4094.03 46.9528 4093.35 47.7803 4092.7C48.712 4091.98 48.8788 4090.63 48.1529 4089.7Z" fill="#FFE4C0"/>
<path d="M71.0143 4104.41C70.4128 4103.36 69.6865 4102.34 68.8556 4101.38C68.0846 4100.48 66.7343 4100.38 65.8396 4101.15C64.9452 4101.93 64.8456 4103.28 65.6169 4104.17C66.2698 4104.93 66.8369 4105.72 67.3026 4106.54C67.882 4107.55 69.2097 4107.91 70.2211 4107.33C71.2461 4106.74 71.6011 4105.44 71.0143 4104.41Z" fill="#FFE4C0"/>
<path d="M54.1334 4130.55C54.1753 4129.37 53.2531 4128.38 52.0721 4128.33C51.1612 4128.3 50.225 4128.2 49.2865 4128.02L49.1231 4127.99C47.9649 4127.76 46.8385 4128.51 46.6072 4129.67C46.3829 4130.79 47.0824 4131.88 48.1804 4132.16C48.2149 4132.17 48.2504 4132.18 48.2856 4132.18L48.5 4132.22C49.6454 4132.44 50.7961 4132.57 51.9205 4132.61C53.1009 4132.65 54.0914 4131.73 54.1334 4130.55Z" fill="#FFE4C0"/>
<path d="M72.9756 4115.44C73.1935 4114.15 73.2697 4112.88 73.2015 4111.65C73.1361 4110.47 72.1266 4109.57 70.9477 4109.64C69.7683 4109.7 68.8657 4110.71 68.9309 4111.89C68.9816 4112.8 68.9235 4113.75 68.759 4114.72C68.5634 4115.87 69.3594 4116.99 70.5083 4117.19C71.657 4117.38 72.7799 4116.59 72.9756 4115.44Z" fill="#FFE4C0"/>
<path d="M69.6502 4119.43C68.6329 4118.82 67.3221 4119.16 66.7208 4120.18C66.2203 4121.02 65.6438 4121.83 65.008 4122.58C64.2435 4123.48 64.3538 4124.83 65.2544 4125.6C66.1431 4126.35 67.5147 4126.24 68.2686 4125.35C69.0612 4124.42 69.7793 4123.41 70.4029 4122.35C71.004 4121.34 70.6669 4120.03 69.6502 4119.43Z" fill="#FFE4C0"/>
<path d="M66.542 4082.47C66.3161 4081.31 65.193 4080.55 64.0339 4080.78C62.8956 4081 61.7555 4081.27 60.6461 4081.57C59.7603 4081.82 59.1148 4082.63 59.0758 4083.54C59.033 4084.55 59.7199 4085.47 60.6923 4085.71C61.0384 4085.8 61.4107 4085.8 61.7792 4085.7C62.7852 4085.42 63.8192 4085.18 64.8521 4084.98C66.0115 4084.75 66.7681 4083.63 66.542 4082.47Z" fill="#FFE4C0"/>
<path d="M63.4176 4127.13C62.8377 4126.1 61.5341 4125.74 60.505 4126.32C59.6556 4126.8 58.76 4127.2 57.8424 4127.51C56.7237 4127.89 56.1243 4129.1 56.5032 4130.22C56.8766 4131.32 58.1107 4131.93 59.215 4131.56C60.3834 4131.16 61.5237 4130.65 62.6038 4130.05C63.6327 4129.47 63.9971 4128.16 63.4176 4127.13Z" fill="#FFE4C0"/>
<path d="M74.9026 4082C74.8856 4080.82 73.914 4079.87 72.7335 4079.89C72.1365 4079.9 71.536 4079.92 70.949 4079.95C69.8302 4080 68.9241 4080.95 68.916 4082.07C68.9072 4083.28 69.9489 4084.28 71.1596 4084.22C71.6974 4084.19 72.2473 4084.18 72.7951 4084.17C73.9755 4084.15 74.9193 4083.18 74.9026 4082Z" fill="#FFE4C0"/>
<path d="M10.5721 4140.63C10.4488 4140.11 10.3351 4139.57 10.2337 4139.04C10.0112 4137.88 8.89029 4137.12 7.73063 4137.34C6.57097 4137.57 5.8108 4138.69 6.03344 4139.85C6.14565 4140.43 6.27145 4141.02 6.40762 4141.61C6.67309 4142.74 7.84097 4143.47 8.97682 4143.2C10.1267 4142.93 10.8409 4141.78 10.5721 4140.63Z" fill="#FFE4C0"/>
<path d="M9.56216 4133.02C9.53196 4132.01 9.54353 4131 9.59744 4130C9.66105 4128.82 8.75722 4127.81 7.57699 4127.75C6.3978 4127.68 5.39035 4128.59 5.32668 4129.77C5.26629 4130.88 5.25314 4132.02 5.28707 4133.15C5.32198 4134.31 6.32371 4135.26 7.48892 4135.22C8.66987 4135.19 9.59801 4134.2 9.56216 4133.02Z" fill="#FFE4C0"/>
<path d="M9.84949 4118.42C8.72649 4118.06 7.52096 4118.68 7.16012 4119.81C6.90356 4120.61 6.66953 4121.42 6.46485 4122.24C6.27705 4122.98 6.06734 4123.7 6.40492 4124.44C6.67909 4125.03 7.22813 4125.49 7.87175 4125.63C8.5093 4125.78 9.19028 4125.62 9.69784 4125.21C10.3127 4124.71 10.4291 4124.01 10.6125 4123.28C10.795 4122.56 11.0036 4121.83 11.2327 4121.11C11.5935 4119.99 10.9741 4118.78 9.84949 4118.42Z" fill="#FFE4C0"/>
<path d="M14.376 4109.96C13.3736 4109.33 12.0552 4109.64 11.429 4110.64C10.8331 4111.59 10.2701 4112.58 9.75662 4113.57C9.21356 4114.62 9.62406 4115.91 10.6729 4116.45C11.708 4116.99 13.0194 4116.57 13.5549 4115.54C14.0158 4114.65 14.5206 4113.76 15.0551 4112.91C15.6812 4111.9 15.3775 4110.58 14.376 4109.96Z" fill="#FFE4C0"/>
<path d="M28.7646 4097.48C28.1821 4096.45 26.878 4096.09 25.8497 4096.67C25.5865 4096.82 25.3244 4096.97 25.0624 4097.13C24.3611 4097.55 23.6583 4098 22.9734 4098.48C22.0027 4099.15 21.7606 4100.48 22.4328 4101.45C23.0961 4102.41 24.4509 4102.65 25.4084 4101.99C26.0152 4101.57 26.6373 4101.17 27.2567 4100.8C27.4892 4100.66 27.723 4100.52 27.957 4100.39C28.9852 4099.81 29.3463 4098.5 28.7646 4097.48Z" fill="#FFE4C0"/>
<path d="M20.7896 4102.82C19.9651 4101.97 18.6113 4101.95 17.7656 4102.78C16.9651 4103.56 16.1851 4104.38 15.4466 4105.23C14.6693 4106.12 14.7602 4107.47 15.6497 4108.24C16.5281 4109.01 17.9006 4108.92 18.667 4108.04C19.3306 4107.28 20.0319 4106.54 20.7513 4105.84C21.5972 4105.02 21.6141 4103.66 20.7896 4102.82Z" fill="#FFE4C0"/>
<path d="M36.4032 4094.73C36.0634 4093.6 34.871 4092.96 33.7399 4093.3C33.1647 4093.47 32.5857 4093.66 32.0182 4093.86C30.9045 4094.25 30.32 4095.47 30.713 4096.59C31.1005 4097.69 32.3415 4098.28 33.4413 4097.89C33.9452 4097.72 34.4594 4097.55 34.9705 4097.39C36.1016 4097.05 36.7431 4095.86 36.4032 4094.73Z" fill="#FFE4C0"/>
</g>
<g clip-path="url(#clip3_769_1264)">
<path d="M132.704 3138.44C123.511 3138.44 116.031 3145.92 116.031 3155.11C116.031 3160.82 118.746 3166.96 124.102 3173.35C124.897 3174.3 125.69 3175.18 126.451 3175.99C122.993 3176.93 120.917 3178.63 120.917 3180.61C120.917 3184.11 126.99 3186 132.703 3186C138.417 3186 144.489 3184.11 144.489 3180.61C144.489 3178.63 142.414 3176.93 138.959 3175.99C140.339 3174.53 141.824 3172.82 143.234 3170.9C143.561 3170.46 143.466 3169.84 143.023 3169.51C142.58 3169.18 141.955 3169.28 141.628 3169.72C139.927 3172.03 138.085 3174.06 136.478 3175.67C136.294 3175.77 136.139 3175.91 136.043 3176.1C134.603 3177.52 133.392 3178.57 132.704 3179.14C132.024 3178.57 130.831 3177.54 129.41 3176.14C129.308 3175.92 129.129 3175.74 128.91 3175.64C124.394 3171.1 118.025 3163.25 118.025 3155.11C118.025 3147.02 124.61 3140.43 132.704 3140.43C140.797 3140.43 147.382 3147.02 147.382 3155.11C147.382 3158.65 146.178 3162.46 143.803 3166.46C143.521 3166.93 143.676 3167.54 144.15 3167.83C144.623 3168.11 145.235 3167.95 145.517 3167.48C148.078 3163.17 149.376 3159.01 149.376 3155.11C149.377 3145.92 141.897 3138.44 132.704 3138.44ZM132.094 3181.22C132.273 3181.35 132.489 3181.42 132.704 3181.42C132.919 3181.42 133.134 3181.35 133.314 3181.22C133.436 3181.12 135.103 3179.82 137.324 3177.65C140.687 3178.34 142.495 3179.66 142.495 3180.61C142.495 3181.32 141.522 3182.15 139.956 3182.79C138.035 3183.57 135.459 3184.01 132.704 3184.01C126.726 3184.01 122.912 3181.99 122.912 3180.61C122.912 3179.65 124.721 3178.33 128.086 3177.65C130.319 3179.83 131.988 3181.13 132.094 3181.22Z" fill="#F4A947"/>
<path d="M132.704 3147.86C131.126 3147.86 129.627 3148.36 128.367 3149.3C127.926 3149.63 127.835 3150.26 128.165 3150.7C128.495 3151.14 129.12 3151.23 129.561 3150.9C130.473 3150.22 131.56 3149.86 132.704 3149.86C135.601 3149.86 137.958 3152.22 137.958 3155.11C137.958 3158.01 135.601 3160.37 132.704 3160.37C129.806 3160.37 127.449 3158.01 127.449 3155.11C127.449 3154.62 127.517 3154.13 127.652 3153.66C127.804 3153.13 127.498 3152.58 126.969 3152.43C126.44 3152.28 125.887 3152.58 125.735 3153.11C125.549 3153.76 125.455 3154.43 125.455 3155.11C125.455 3159.11 128.707 3162.36 132.704 3162.36C136.701 3162.36 139.953 3159.11 139.953 3155.11C139.953 3151.12 136.701 3147.86 132.704 3147.86Z" fill="#F4A947"/>
<path d="M176.159 3146.97C176.666 3146.42 177.189 3145.84 177.713 3145.21C181.864 3140.25 183.969 3135.49 183.969 3131.04C183.969 3123.85 178.117 3118 170.924 3118C165.67 3118 160.952 3121.13 158.905 3125.97C158.69 3126.47 158.928 3127.06 159.435 3127.27C159.942 3127.49 160.527 3127.25 160.742 3126.74C162.476 3122.64 166.473 3119.99 170.924 3119.99C177.018 3119.99 181.975 3124.95 181.975 3131.04C181.975 3139.28 173.324 3147.18 170.924 3149.21C170.395 3148.76 169.563 3148.03 168.586 3147.08C168.489 3146.88 168.332 3146.73 168.143 3146.63C164.7 3143.17 159.874 3137.21 159.874 3131.04C159.874 3130.49 159.427 3130.05 158.877 3130.05C158.326 3130.05 157.879 3130.49 157.879 3131.04C157.879 3135.49 159.984 3140.25 164.136 3145.21C164.66 3145.84 165.182 3146.42 165.689 3146.97C163.119 3147.74 161.635 3149.06 161.635 3150.64C161.635 3151.97 162.718 3153.15 164.684 3153.95C166.367 3154.64 168.583 3155.01 170.924 3155.01C173.265 3155.01 175.481 3154.64 177.164 3153.95C179.13 3153.15 180.213 3151.97 180.213 3150.64C180.213 3149.06 178.728 3147.74 176.159 3146.97ZM170.924 3153.02C166.204 3153.02 163.629 3151.45 163.629 3150.64C163.629 3150.11 164.8 3149.15 167.302 3148.62C168.984 3150.25 170.234 3151.23 170.314 3151.29C170.494 3151.43 170.709 3151.5 170.924 3151.5C171.14 3151.5 171.355 3151.43 171.535 3151.29C171.615 3151.23 172.864 3150.25 174.547 3148.62C175.661 3148.85 176.627 3149.2 177.302 3149.61C177.876 3149.96 178.219 3150.35 178.219 3150.64C178.219 3151.45 175.644 3153.02 170.924 3153.02Z" fill="#F4A947"/>
<path d="M170.924 3125.24C167.725 3125.24 165.122 3127.85 165.122 3131.04C165.122 3134.24 167.725 3136.85 170.924 3136.85C174.124 3136.85 176.727 3134.24 176.727 3131.04C176.727 3127.85 174.124 3125.24 170.924 3125.24ZM170.925 3134.85C168.824 3134.85 167.116 3133.14 167.116 3131.04C167.116 3128.94 168.825 3127.24 170.925 3127.24C173.024 3127.24 174.733 3128.94 174.733 3131.04C174.733 3133.14 173.024 3134.85 170.925 3134.85Z" fill="#F4A947"/>
<path d="M157.99 3149.64H157.534C157.203 3149.64 156.87 3149.66 156.544 3149.71C155.998 3149.78 155.615 3150.28 155.687 3150.83C155.754 3151.33 156.182 3151.69 156.674 3151.69C156.718 3151.69 156.762 3151.69 156.807 3151.68C157.046 3151.65 157.291 3151.64 157.535 3151.64H157.99V3151.64C158.541 3151.64 158.987 3151.19 158.987 3150.64C158.987 3150.09 158.541 3149.64 157.99 3149.64Z" fill="#F4A947"/>
<path d="M154.693 3179.56C154.692 3179.56 154.69 3179.56 154.689 3179.56L153.372 3179.56C152.821 3179.57 152.377 3180.02 152.379 3180.57C152.381 3181.11 152.827 3181.56 153.376 3181.56C153.378 3181.56 153.379 3181.56 153.381 3181.56L154.698 3181.55C155.248 3181.55 155.693 3181.1 155.69 3180.55C155.688 3180 155.242 3179.56 154.693 3179.56Z" fill="#F4A947"/>
<path d="M159.173 3162.56H157.856C157.305 3162.56 156.859 3163 156.859 3163.55C156.859 3164.11 157.305 3164.55 157.856 3164.55H159.173C159.724 3164.55 160.17 3164.11 160.17 3163.55C160.17 3163 159.724 3162.56 159.173 3162.56Z" fill="#F4A947"/>
<path d="M153.889 3151.67C153.516 3151.27 152.885 3151.24 152.48 3151.62C152.109 3151.96 151.77 3152.34 151.475 3152.75C151.154 3153.2 151.256 3153.82 151.704 3154.14C151.88 3154.27 152.083 3154.33 152.285 3154.33C152.595 3154.33 152.9 3154.19 153.095 3153.92C153.312 3153.61 153.56 3153.33 153.833 3153.08C154.237 3152.71 154.263 3152.08 153.889 3151.67Z" fill="#F4A947"/>
<path d="M159.961 3179.53C159.96 3179.53 159.958 3179.53 159.956 3179.53L158.64 3179.54C158.089 3179.54 157.645 3179.99 157.647 3180.54C157.649 3181.09 158.095 3181.53 158.644 3181.53C158.646 3181.53 158.647 3181.53 158.649 3181.53L159.965 3181.53C160.516 3181.53 160.961 3181.08 160.958 3180.53C160.956 3179.98 160.51 3179.53 159.961 3179.53Z" fill="#F4A947"/>
<path d="M149.425 3179.58C149.424 3179.58 149.422 3179.58 149.42 3179.58L148.103 3179.59C147.553 3179.59 147.108 3180.04 147.111 3180.59C147.113 3181.14 147.559 3181.58 148.108 3181.58C148.109 3181.58 148.111 3181.58 148.113 3181.58L149.43 3181.58C149.98 3181.57 150.425 3181.13 150.422 3180.57C150.42 3180.03 149.974 3179.58 149.425 3179.58Z" fill="#F4A947"/>
<path d="M154.626 3161.72C154.312 3161.52 154.018 3161.29 153.75 3161.03C153.353 3160.65 152.722 3160.66 152.34 3161.06C151.958 3161.46 151.971 3162.09 152.367 3162.47C152.732 3162.82 153.134 3163.14 153.562 3163.41C153.727 3163.51 153.911 3163.56 154.093 3163.56C154.424 3163.56 154.747 3163.4 154.937 3163.09C155.231 3162.63 155.091 3162.01 154.626 3161.72Z" fill="#F4A947"/>
<path d="M152.175 3158.15C152.108 3157.8 152.074 3157.45 152.074 3157.1L152.074 3157.04C152.081 3156.49 151.639 3156.04 151.089 3156.03C151.085 3156.03 151.081 3156.03 151.077 3156.03C150.532 3156.03 150.086 3156.47 150.08 3157.02L150.08 3157.1C150.08 3157.58 150.126 3158.06 150.217 3158.53C150.31 3159.01 150.727 3159.34 151.195 3159.34C151.258 3159.34 151.322 3159.33 151.387 3159.32C151.927 3159.21 152.28 3158.69 152.175 3158.15Z" fill="#F4A947"/>
<path d="M164.441 3162.56H163.124C162.573 3162.56 162.127 3163 162.127 3163.55C162.127 3164.11 162.573 3164.55 163.124 3164.55H164.441C164.992 3164.55 165.438 3164.11 165.438 3163.55C165.438 3163 164.992 3162.56 164.441 3162.56Z" fill="#F4A947"/>
<path d="M180.451 3164.59C180.066 3164.28 179.656 3164.01 179.23 3163.77C178.751 3163.5 178.142 3163.67 177.872 3164.15C177.601 3164.63 177.771 3165.24 178.251 3165.51C178.587 3165.7 178.911 3165.91 179.215 3166.15C179.398 3166.3 179.615 3166.37 179.832 3166.37C180.126 3166.37 180.418 3166.24 180.615 3165.99C180.957 3165.56 180.883 3164.93 180.451 3164.59Z" fill="#F4A947"/>
<path d="M176.749 3180.25C176.674 3179.7 176.17 3179.32 175.625 3179.4C175.299 3179.44 174.964 3179.47 174.631 3179.47L174.444 3179.47C173.893 3179.47 173.449 3179.92 173.452 3180.47C173.454 3181.02 173.9 3181.46 174.449 3181.46C174.45 3181.46 174.452 3181.46 174.454 3181.46L174.64 3181.46C175.061 3181.46 175.484 3181.43 175.898 3181.37C176.444 3181.3 176.825 3180.79 176.749 3180.25Z" fill="#F4A947"/>
<path d="M181.15 3177.44C180.77 3177.05 180.139 3177.03 179.74 3177.41C179.461 3177.68 179.158 3177.92 178.84 3178.14C178.388 3178.46 178.275 3179.08 178.589 3179.53C178.783 3179.81 179.093 3179.96 179.409 3179.96C179.605 3179.96 179.803 3179.9 179.976 3179.78C180.378 3179.5 180.762 3179.19 181.116 3178.85C181.515 3178.47 181.53 3177.84 181.15 3177.44Z" fill="#F4A947"/>
<path d="M183.091 3172.6C182.55 3172.5 182.028 3172.86 181.926 3173.4C181.855 3173.78 181.753 3174.15 181.624 3174.52C181.439 3175.03 181.709 3175.61 182.228 3175.79C182.339 3175.83 182.452 3175.85 182.563 3175.85C182.973 3175.85 183.357 3175.59 183.502 3175.19C183.667 3174.73 183.796 3174.25 183.886 3173.77C183.988 3173.22 183.632 3172.7 183.091 3172.6Z" fill="#F4A947"/>
<path d="M183.683 3169.4C183.548 3168.93 183.375 3168.46 183.167 3168.02C182.934 3167.52 182.341 3167.3 181.842 3167.54C181.343 3167.77 181.127 3168.36 181.36 3168.86C181.523 3169.21 181.66 3169.58 181.766 3169.95C181.892 3170.38 182.291 3170.67 182.724 3170.67C182.816 3170.67 182.908 3170.66 183 3170.63C183.529 3170.48 183.835 3169.93 183.683 3169.4Z" fill="#F4A947"/>
<path d="M169.709 3162.56H168.392C167.841 3162.56 167.395 3163 167.395 3163.55C167.395 3164.11 167.841 3164.55 168.392 3164.55H169.709C170.26 3164.55 170.706 3164.11 170.706 3163.55C170.706 3163 170.26 3162.56 169.709 3162.56Z" fill="#F4A947"/>
<path d="M165.229 3179.51C165.228 3179.51 165.226 3179.51 165.225 3179.51L163.908 3179.52C163.357 3179.52 162.913 3179.97 162.915 3180.52C162.918 3181.07 163.364 3181.51 163.912 3181.51C163.914 3181.51 163.915 3181.51 163.917 3181.51L165.234 3181.5C165.784 3181.5 166.229 3181.05 166.226 3180.5C166.224 3179.95 165.778 3179.51 165.229 3179.51Z" fill="#F4A947"/>
<path d="M175.021 3162.57C174.88 3162.56 174.737 3162.56 174.597 3162.56H173.66C173.109 3162.56 172.663 3163 172.663 3163.55C172.663 3164.11 173.109 3164.55 173.66 3164.55H174.597V3164.55C174.709 3164.55 174.822 3164.55 174.933 3164.56C174.948 3164.56 174.963 3164.56 174.978 3164.56C175.508 3164.56 175.95 3164.14 175.973 3163.61C175.997 3163.06 175.571 3162.59 175.021 3162.57Z" fill="#F4A947"/>
<path d="M170.497 3179.49C170.496 3179.49 170.494 3179.49 170.493 3179.49L169.176 3179.49C168.625 3179.49 168.181 3179.94 168.183 3180.49C168.186 3181.04 168.632 3181.49 169.18 3181.49C169.182 3181.49 169.183 3181.49 169.185 3181.49L170.502 3181.48C171.052 3181.48 171.497 3181.03 171.494 3180.48C171.492 3179.93 171.046 3179.49 170.497 3179.49Z" fill="#F4A947"/>
</g>
<g clip-path="url(#clip4_769_1264)">
<path d="M1817.7 4213.44C1808.51 4213.44 1801.03 4220.92 1801.03 4230.11C1801.03 4235.82 1803.75 4241.96 1809.1 4248.35C1809.9 4249.3 1810.69 4250.18 1811.45 4250.99C1807.99 4251.93 1805.92 4253.63 1805.92 4255.61C1805.92 4259.11 1811.99 4261 1817.7 4261C1823.42 4261 1829.49 4259.11 1829.49 4255.61C1829.49 4253.63 1827.41 4251.93 1823.96 4250.99C1825.34 4249.53 1826.82 4247.82 1828.23 4245.9C1828.56 4245.46 1828.47 4244.84 1828.02 4244.51C1827.58 4244.18 1826.96 4244.28 1826.63 4244.72C1824.93 4247.03 1823.08 4249.06 1821.48 4250.67C1821.29 4250.77 1821.14 4250.91 1821.04 4251.1C1819.6 4252.52 1818.39 4253.57 1817.7 4254.14C1817.02 4253.57 1815.83 4252.54 1814.41 4251.14C1814.31 4250.92 1814.13 4250.74 1813.91 4250.64C1809.39 4246.1 1803.03 4238.25 1803.03 4230.11C1803.03 4222.02 1809.61 4215.43 1817.7 4215.43C1825.8 4215.43 1832.38 4222.02 1832.38 4230.11C1832.38 4233.65 1831.18 4237.46 1828.8 4241.46C1828.52 4241.93 1828.68 4242.54 1829.15 4242.83C1829.62 4243.11 1830.24 4242.95 1830.52 4242.48C1833.08 4238.17 1834.38 4234.01 1834.38 4230.11C1834.38 4220.92 1826.9 4213.44 1817.7 4213.44ZM1817.09 4256.22C1817.27 4256.35 1817.49 4256.42 1817.7 4256.42C1817.92 4256.42 1818.13 4256.35 1818.31 4256.22C1818.44 4256.12 1820.1 4254.82 1822.32 4252.65C1825.69 4253.34 1827.5 4254.66 1827.5 4255.61C1827.5 4256.32 1826.52 4257.15 1824.96 4257.79C1823.04 4258.57 1820.46 4259.01 1817.7 4259.01C1811.73 4259.01 1807.91 4256.99 1807.91 4255.61C1807.91 4254.65 1809.72 4253.33 1813.09 4252.65C1815.32 4254.83 1816.99 4256.13 1817.09 4256.22Z" fill="#F4A947"/>
<path d="M1817.7 4222.86C1816.13 4222.86 1814.63 4223.36 1813.37 4224.3C1812.93 4224.63 1812.84 4225.26 1813.17 4225.7C1813.49 4226.14 1814.12 4226.23 1814.56 4225.9C1815.47 4225.22 1816.56 4224.86 1817.7 4224.86C1820.6 4224.86 1822.96 4227.22 1822.96 4230.11C1822.96 4233.01 1820.6 4235.37 1817.7 4235.37C1814.81 4235.37 1812.45 4233.01 1812.45 4230.11C1812.45 4229.62 1812.52 4229.13 1812.65 4228.66C1812.8 4228.13 1812.5 4227.58 1811.97 4227.43C1811.44 4227.28 1810.89 4227.58 1810.74 4228.11C1810.55 4228.76 1810.45 4229.43 1810.45 4230.11C1810.45 4234.11 1813.71 4237.36 1817.7 4237.36C1821.7 4237.36 1824.95 4234.11 1824.95 4230.11C1824.95 4226.12 1821.7 4222.86 1817.7 4222.86Z" fill="#F4A947"/>
<path d="M1861.16 4221.97C1861.67 4221.42 1862.19 4220.84 1862.71 4220.21C1866.86 4215.25 1868.97 4210.49 1868.97 4206.04C1868.97 4198.85 1863.12 4193 1855.92 4193C1850.67 4193 1845.95 4196.13 1843.91 4200.97C1843.69 4201.47 1843.93 4202.06 1844.43 4202.27C1844.94 4202.49 1845.53 4202.25 1845.74 4201.74C1847.48 4197.64 1851.47 4194.99 1855.92 4194.99C1862.02 4194.99 1866.97 4199.95 1866.97 4206.04C1866.97 4214.28 1858.32 4222.18 1855.92 4224.21C1855.4 4223.76 1854.56 4223.03 1853.59 4222.08C1853.49 4221.88 1853.33 4221.73 1853.14 4221.63C1849.7 4218.17 1844.87 4212.21 1844.87 4206.04C1844.87 4205.49 1844.43 4205.05 1843.88 4205.05C1843.33 4205.05 1842.88 4205.49 1842.88 4206.04C1842.88 4210.49 1844.98 4215.25 1849.14 4220.21C1849.66 4220.84 1850.18 4221.42 1850.69 4221.97C1848.12 4222.74 1846.63 4224.06 1846.63 4225.64C1846.63 4226.97 1847.72 4228.15 1849.68 4228.95C1851.37 4229.64 1853.58 4230.01 1855.92 4230.01C1858.26 4230.01 1860.48 4229.64 1862.16 4228.95C1864.13 4228.15 1865.21 4226.97 1865.21 4225.64C1865.21 4224.06 1863.73 4222.74 1861.16 4221.97ZM1855.92 4228.02C1851.2 4228.02 1848.63 4226.45 1848.63 4225.64C1848.63 4225.11 1849.8 4224.15 1852.3 4223.62C1853.98 4225.25 1855.23 4226.23 1855.31 4226.29C1855.49 4226.43 1855.71 4226.5 1855.92 4226.5C1856.14 4226.5 1856.35 4226.43 1856.53 4226.29C1856.62 4226.23 1857.86 4225.25 1859.55 4223.62C1860.66 4223.85 1861.63 4224.2 1862.3 4224.61C1862.88 4224.96 1863.22 4225.35 1863.22 4225.64C1863.22 4226.45 1860.64 4228.02 1855.92 4228.02Z" fill="#F4A947"/>
<path d="M1855.92 4200.24C1852.73 4200.24 1850.12 4202.85 1850.12 4206.04C1850.12 4209.24 1852.72 4211.85 1855.92 4211.85C1859.12 4211.85 1861.73 4209.24 1861.73 4206.04C1861.73 4202.85 1859.12 4200.24 1855.92 4200.24ZM1855.92 4209.85C1853.82 4209.85 1852.12 4208.14 1852.12 4206.04C1852.12 4203.94 1853.82 4202.24 1855.92 4202.24C1858.02 4202.24 1859.73 4203.94 1859.73 4206.04C1859.73 4208.14 1858.02 4209.85 1855.92 4209.85Z" fill="#F4A947"/>
<path d="M1842.99 4224.64H1842.53C1842.2 4224.64 1841.87 4224.66 1841.54 4224.71C1841 4224.78 1840.61 4225.28 1840.69 4225.83C1840.75 4226.33 1841.18 4226.69 1841.67 4226.69C1841.72 4226.69 1841.76 4226.69 1841.81 4226.68C1842.05 4226.65 1842.29 4226.64 1842.53 4226.64H1842.99V4226.64C1843.54 4226.64 1843.99 4226.19 1843.99 4225.64C1843.99 4225.09 1843.54 4224.64 1842.99 4224.64Z" fill="#F4A947"/>
<path d="M1839.69 4254.56C1839.69 4254.56 1839.69 4254.56 1839.69 4254.56L1838.37 4254.56C1837.82 4254.57 1837.38 4255.02 1837.38 4255.57C1837.38 4256.11 1837.83 4256.56 1838.38 4256.56C1838.38 4256.56 1838.38 4256.56 1838.38 4256.56L1839.7 4256.55C1840.25 4256.55 1840.69 4256.1 1840.69 4255.55C1840.69 4255 1840.24 4254.56 1839.69 4254.56Z" fill="#F4A947"/>
<path d="M1844.17 4237.56H1842.86C1842.31 4237.56 1841.86 4238 1841.86 4238.55C1841.86 4239.11 1842.31 4239.55 1842.86 4239.55H1844.17C1844.72 4239.55 1845.17 4239.11 1845.17 4238.55C1845.17 4238 1844.72 4237.56 1844.17 4237.56Z" fill="#F4A947"/>
<path d="M1838.89 4226.67C1838.52 4226.27 1837.89 4226.24 1837.48 4226.62C1837.11 4226.96 1836.77 4227.34 1836.48 4227.75C1836.15 4228.2 1836.26 4228.82 1836.7 4229.14C1836.88 4229.27 1837.08 4229.33 1837.28 4229.33C1837.59 4229.33 1837.9 4229.19 1838.1 4228.92C1838.31 4228.61 1838.56 4228.33 1838.83 4228.08C1839.24 4227.71 1839.26 4227.08 1838.89 4226.67Z" fill="#F4A947"/>
<path d="M1844.96 4254.53C1844.96 4254.53 1844.96 4254.53 1844.96 4254.53L1843.64 4254.54C1843.09 4254.54 1842.64 4254.99 1842.65 4255.54C1842.65 4256.09 1843.1 4256.53 1843.64 4256.53C1843.65 4256.53 1843.65 4256.53 1843.65 4256.53L1844.97 4256.53C1845.52 4256.53 1845.96 4256.08 1845.96 4255.53C1845.96 4254.98 1845.51 4254.53 1844.96 4254.53Z" fill="#F4A947"/>
<path d="M1834.43 4254.58C1834.42 4254.58 1834.42 4254.58 1834.42 4254.58L1833.1 4254.59C1832.55 4254.59 1832.11 4255.04 1832.11 4255.59C1832.11 4256.14 1832.56 4256.58 1833.11 4256.58C1833.11 4256.58 1833.11 4256.58 1833.11 4256.58L1834.43 4256.58C1834.98 4256.57 1835.42 4256.13 1835.42 4255.57C1835.42 4255.03 1834.97 4254.58 1834.43 4254.58Z" fill="#F4A947"/>
<path d="M1839.63 4236.72C1839.31 4236.52 1839.02 4236.29 1838.75 4236.03C1838.35 4235.65 1837.72 4235.66 1837.34 4236.06C1836.96 4236.46 1836.97 4237.09 1837.37 4237.47C1837.73 4237.82 1838.13 4238.14 1838.56 4238.41C1838.73 4238.51 1838.91 4238.56 1839.09 4238.56C1839.42 4238.56 1839.75 4238.4 1839.94 4238.09C1840.23 4237.63 1840.09 4237.01 1839.63 4236.72Z" fill="#F4A947"/>
<path d="M1837.17 4233.15C1837.11 4232.8 1837.07 4232.45 1837.07 4232.1L1837.07 4232.04C1837.08 4231.49 1836.64 4231.04 1836.09 4231.03C1836.08 4231.03 1836.08 4231.03 1836.08 4231.03C1835.53 4231.03 1835.09 4231.47 1835.08 4232.02L1835.08 4232.1C1835.08 4232.58 1835.13 4233.06 1835.22 4233.53C1835.31 4234.01 1835.73 4234.34 1836.19 4234.34C1836.26 4234.34 1836.32 4234.33 1836.39 4234.32C1836.93 4234.21 1837.28 4233.69 1837.17 4233.15Z" fill="#F4A947"/>
<path d="M1849.44 4237.56H1848.12C1847.57 4237.56 1847.13 4238 1847.13 4238.55C1847.13 4239.11 1847.57 4239.55 1848.12 4239.55H1849.44C1849.99 4239.55 1850.44 4239.11 1850.44 4238.55C1850.44 4238 1849.99 4237.56 1849.44 4237.56Z" fill="#F4A947"/>
<path d="M1865.45 4239.59C1865.07 4239.28 1864.66 4239.01 1864.23 4238.77C1863.75 4238.5 1863.14 4238.67 1862.87 4239.15C1862.6 4239.63 1862.77 4240.24 1863.25 4240.51C1863.59 4240.7 1863.91 4240.91 1864.21 4241.15C1864.4 4241.3 1864.62 4241.37 1864.83 4241.37C1865.13 4241.37 1865.42 4241.24 1865.62 4240.99C1865.96 4240.56 1865.88 4239.93 1865.45 4239.59Z" fill="#F4A947"/>
<path d="M1861.75 4255.25C1861.67 4254.7 1861.17 4254.32 1860.63 4254.4C1860.3 4254.44 1859.96 4254.47 1859.63 4254.47L1859.44 4254.47C1858.89 4254.47 1858.45 4254.92 1858.45 4255.47C1858.45 4256.02 1858.9 4256.46 1859.45 4256.46C1859.45 4256.46 1859.45 4256.46 1859.45 4256.46L1859.64 4256.46C1860.06 4256.46 1860.48 4256.43 1860.9 4256.37C1861.44 4256.3 1861.82 4255.79 1861.75 4255.25Z" fill="#F4A947"/>
<path d="M1866.15 4252.44C1865.77 4252.05 1865.14 4252.03 1864.74 4252.41C1864.46 4252.68 1864.16 4252.92 1863.84 4253.14C1863.39 4253.46 1863.28 4254.08 1863.59 4254.53C1863.78 4254.81 1864.09 4254.96 1864.41 4254.96C1864.61 4254.96 1864.8 4254.9 1864.98 4254.78C1865.38 4254.5 1865.76 4254.19 1866.12 4253.85C1866.51 4253.47 1866.53 4252.84 1866.15 4252.44Z" fill="#F4A947"/>
<path d="M1868.09 4247.6C1867.55 4247.5 1867.03 4247.86 1866.93 4248.4C1866.85 4248.78 1866.75 4249.15 1866.62 4249.52C1866.44 4250.03 1866.71 4250.61 1867.23 4250.79C1867.34 4250.83 1867.45 4250.85 1867.56 4250.85C1867.97 4250.85 1868.36 4250.59 1868.5 4250.19C1868.67 4249.73 1868.8 4249.25 1868.89 4248.77C1868.99 4248.22 1868.63 4247.7 1868.09 4247.6Z" fill="#F4A947"/>
<path d="M1868.68 4244.4C1868.55 4243.93 1868.37 4243.46 1868.17 4243.02C1867.93 4242.52 1867.34 4242.3 1866.84 4242.54C1866.34 4242.77 1866.13 4243.36 1866.36 4243.86C1866.52 4244.21 1866.66 4244.58 1866.77 4244.95C1866.89 4245.38 1867.29 4245.67 1867.72 4245.67C1867.82 4245.67 1867.91 4245.66 1868 4245.63C1868.53 4245.48 1868.84 4244.93 1868.68 4244.4Z" fill="#F4A947"/>
<path d="M1854.71 4237.56H1853.39C1852.84 4237.56 1852.4 4238 1852.4 4238.55C1852.4 4239.11 1852.84 4239.55 1853.39 4239.55H1854.71C1855.26 4239.55 1855.71 4239.11 1855.71 4238.55C1855.71 4238 1855.26 4237.56 1854.71 4237.56Z" fill="#F4A947"/>
<path d="M1850.23 4254.51C1850.23 4254.51 1850.23 4254.51 1850.22 4254.51L1848.91 4254.52C1848.36 4254.52 1847.91 4254.97 1847.92 4255.52C1847.92 4256.07 1848.36 4256.51 1848.91 4256.51C1848.91 4256.51 1848.92 4256.51 1848.92 4256.51L1850.23 4256.5C1850.78 4256.5 1851.23 4256.05 1851.23 4255.5C1851.22 4254.95 1850.78 4254.51 1850.23 4254.51Z" fill="#F4A947"/>
<path d="M1860.02 4237.57C1859.88 4237.56 1859.74 4237.56 1859.6 4237.56H1858.66C1858.11 4237.56 1857.66 4238 1857.66 4238.55C1857.66 4239.11 1858.11 4239.55 1858.66 4239.55H1859.6V4239.55C1859.71 4239.55 1859.82 4239.55 1859.93 4239.56C1859.95 4239.56 1859.96 4239.56 1859.98 4239.56C1860.51 4239.56 1860.95 4239.14 1860.97 4238.61C1861 4238.06 1860.57 4237.59 1860.02 4237.57Z" fill="#F4A947"/>
<path d="M1855.5 4254.49C1855.5 4254.49 1855.49 4254.49 1855.49 4254.49L1854.18 4254.49C1853.63 4254.49 1853.18 4254.94 1853.18 4255.49C1853.19 4256.04 1853.63 4256.49 1854.18 4256.49C1854.18 4256.49 1854.18 4256.49 1854.18 4256.49L1855.5 4256.48C1856.05 4256.48 1856.5 4256.03 1856.49 4255.48C1856.49 4254.93 1856.05 4254.49 1855.5 4254.49Z" fill="#F4A947"/>
</g>
</g>
<defs>
<clipPath id="clip0_769_1264">
<rect width="1920" height="5600" fill="white"/>
</clipPath>
<clipPath id="clip1_769_1264">
<rect width="145.698" height="145.698" fill="white" transform="matrix(-0.969736 0.244157 0.244157 0.969736 1884 1965)"/>
</clipPath>
<clipPath id="clip2_769_1264">
<rect width="145.698" height="145.698" fill="white" transform="translate(36 4000) rotate(14.132)"/>
</clipPath>
<clipPath id="clip3_769_1264">
<rect width="68" height="68" fill="white" transform="translate(116 3118)"/>
</clipPath>
<clipPath id="clip4_769_1264">
<rect width="68" height="68" fill="white" transform="translate(1801 4193)"/>
</clipPath>
</defs>
</svg>
