<svg width="32" height="32" viewBox="0 0 32 32" fill="none" xmlns="http://www.w3.org/2000/svg">
<g id="9">
<g id="Group">
<path id="Vector" d="M18.3867 11.5869C18.3867 11.5869 17.0267 10.3869 14.64 11.2269C12.44 11.9869 12.5467 15.0002 15.88 15.8002" stroke="white" stroke-width="1.2" stroke-miterlimit="10" stroke-linecap="round" stroke-linejoin="round"/>
<path id="Vector_2" d="M13.16 19.9603C13.16 19.9603 14.52 21.1603 16.9066 20.3203C19.12 19.547 19.0133 16.5336 15.6666 15.7336" stroke="white" stroke-width="1.2" stroke-miterlimit="10" stroke-linecap="round" stroke-linejoin="round"/>
<path id="Vector_3" d="M16.0133 10.9336V8.97363" stroke="white" stroke-width="1.2" stroke-miterlimit="10" stroke-linecap="round" stroke-linejoin="round"/>
<path id="Vector_4" d="M16.0134 22.5733V20.6133" stroke="white" stroke-width="1.2" stroke-miterlimit="10" stroke-linecap="round" stroke-linejoin="round"/>
</g>
<path id="Vector_5" d="M15.7733 28.0799C22.5701 28.0799 28.08 22.57 28.08 15.7732C28.08 8.97643 22.5701 3.46655 15.7733 3.46655C8.97656 3.46655 3.46667 8.97643 3.46667 15.7732C3.46667 22.57 8.97656 28.0799 15.7733 28.0799Z" stroke="white" stroke-width="1.2" stroke-miterlimit="10" stroke-linecap="round" stroke-linejoin="round"/>
</g>
</svg>
